<svg xmlns="http://www.w3.org/2000/svg" xmlns:xlink="http://www.w3.org/1999/xlink" width="1000" zoomAndPan="magnify" viewBox="0 0 750 749.999995" height="1000" preserveAspectRatio="xMidYMid meet" version="1.0"><defs><clipPath id="311706d97e"><path d="M 56.480469 101.902344 L 694 101.902344 L 694 648.101562 L 56.480469 648.101562 Z M 56.480469 101.902344 " clip-rule="nonzero"/></clipPath><clipPath id="2cdf54c386"><path d="M 83.480469 101.902344 L 666.519531 101.902344 C 681.429688 101.902344 693.519531 113.988281 693.519531 128.902344 L 693.519531 621.101562 C 693.519531 636.011719 681.429688 648.101562 666.519531 648.101562 L 83.480469 648.101562 C 68.570312 648.101562 56.480469 636.011719 56.480469 621.101562 L 56.480469 128.902344 C 56.480469 113.988281 68.570312 101.902344 83.480469 101.902344 Z M 83.480469 101.902344 " clip-rule="nonzero"/></clipPath><clipPath id="3252f74f45"><path d="M 0.480469 0.902344 L 637.601562 0.902344 L 637.601562 547.101562 L 0.480469 547.101562 Z M 0.480469 0.902344 " clip-rule="nonzero"/></clipPath><clipPath id="ddc8259a71"><path d="M 27.480469 0.902344 L 610.519531 0.902344 C 625.429688 0.902344 637.519531 12.988281 637.519531 27.902344 L 637.519531 520.101562 C 637.519531 535.011719 625.429688 547.101562 610.519531 547.101562 L 27.480469 547.101562 C 12.570312 547.101562 0.480469 535.011719 0.480469 520.101562 L 0.480469 27.902344 C 0.480469 12.988281 12.570312 0.902344 27.480469 0.902344 Z M 27.480469 0.902344 " clip-rule="nonzero"/></clipPath><clipPath id="b99b9a3a88"><rect x="0" width="638" y="0" height="548"/></clipPath><clipPath id="73635ce53e"><path d="M 267.84375 336 L 482.34375 336 L 482.34375 532 L 267.84375 532 Z M 267.84375 336 " clip-rule="nonzero"/></clipPath><clipPath id="16e54b89ea"><path d="M 369 201.210938 L 444 201.210938 L 444 311 L 369 311 Z M 369 201.210938 " clip-rule="nonzero"/></clipPath><clipPath id="9e80649f2d"><path d="M 341 570 L 374 570 L 374 602.460938 L 341 602.460938 Z M 341 570 " clip-rule="nonzero"/></clipPath></defs><g clip-path="url(#311706d97e)"><g clip-path="url(#2cdf54c386)"><g transform="matrix(1, 0, 0, 1, 56, 101)"><g clip-path="url(#b99b9a3a88)"><g clip-path="url(#3252f74f45)"><g clip-path="url(#ddc8259a71)"><path fill="#e2e2e2" d="M 0.480469 0.902344 L 638.425781 0.902344 L 638.425781 547.101562 L 0.480469 547.101562 Z M 0.480469 0.902344 " fill-opacity="1" fill-rule="nonzero"/></g></g></g></g></g></g><g clip-path="url(#73635ce53e)"><path fill="#000000" d="M 477.691406 341.328125 L 272.804688 336.585938 C 271.503906 336.542969 270.246094 337.050781 269.3125 337.960938 C 268.382812 338.875 267.867188 340.125 267.878906 341.425781 L 268.140625 373.230469 C 268.15625 375.425781 269.667969 377.328125 271.792969 377.855469 C 272.441406 378.015625 273.09375 378.039062 273.726562 377.933594 C 274.890625 377.871094 278.855469 377.855469 284.984375 377.871094 C 290.699219 405.097656 311.910156 431.457031 340.917969 447.457031 L 341.761719 499.78125 C 341.792969 501.578125 342.820312 503.210938 344.433594 504.011719 L 399.835938 531.480469 C 400.507812 531.816406 401.246094 531.984375 401.976562 531.984375 C 402.851562 531.984375 403.71875 531.75 404.488281 531.277344 C 405.902344 530.414062 406.769531 528.890625 406.792969 527.242188 C 407.128906 501.496094 407.867188 460.699219 408.535156 450.667969 C 440.96875 433.972656 458.328125 412.5625 466.199219 379.65625 C 469.648438 379.699219 473.042969 379.738281 476.359375 379.785156 C 476.382812 379.785156 476.398438 379.785156 476.421875 379.785156 C 479 379.785156 481.125 377.75 481.230469 375.171875 L 482.386719 346.320312 C 482.433594 345.03125 481.96875 343.78125 481.085938 342.835938 C 480.203125 341.890625 478.984375 341.359375 477.691406 341.328125 Z M 276.535156 376.414062 C 276.65625 376.277344 276.769531 376.140625 276.878906 375.988281 C 276.769531 376.140625 276.65625 376.285156 276.535156 376.414062 Z M 437.148438 417.5 C 428.523438 427.417969 417.320312 435.597656 401.914062 443.257812 C 400.828125 443.792969 399.988281 444.722656 399.554688 445.863281 C 399.191406 446.824219 398.246094 449.308594 397.265625 519.484375 L 351.339844 496.714844 L 350.5 444.492188 C 350.46875 442.730469 349.480469 441.125 347.914062 440.308594 C 320.832031 426.152344 300.785156 402.46875 294.855469 377.917969 C 329.410156 378.113281 399.226562 378.863281 456.3125 379.554688 C 452.398438 394.761719 446.113281 407.203125 437.148438 417.5 Z M 471.800781 370.125 C 458.0625 369.957031 416.269531 369.457031 374.886719 369.019531 C 345.378906 368.707031 321.84375 368.488281 304.941406 368.367188 C 294.902344 368.296875 287.121094 368.265625 281.808594 368.265625 C 281.800781 368.265625 281.785156 368.265625 281.777344 368.265625 C 280.242188 368.265625 278.886719 368.265625 277.722656 368.273438 L 277.539062 346.3125 L 472.5625 350.832031 Z M 471.800781 370.125 " fill-opacity="1" fill-rule="nonzero"/></g><path fill="#000000" d="M 298.796875 291.40625 C 298.066406 293.101562 298.371094 295.066406 299.582031 296.460938 L 330.292969 331.761719 C 331.207031 332.8125 332.53125 333.421875 333.929688 333.421875 C 333.945312 333.421875 333.96875 333.421875 333.984375 333.421875 C 335.398438 333.402344 336.730469 332.769531 337.636719 331.679688 L 367.132812 296.164062 C 368.3125 294.746094 368.578125 292.773438 367.808594 291.101562 C 367.039062 289.425781 365.378906 288.328125 363.53125 288.296875 L 350.875 288.03125 L 351.269531 236.480469 C 351.285156 233.835938 349.175781 231.683594 346.527344 231.640625 L 321.089844 231.25 C 319.796875 231.195312 318.527344 231.738281 317.605469 232.660156 C 316.683594 233.582031 316.175781 234.839844 316.203125 236.136719 L 317.109375 287.945312 L 303.015625 288.519531 C 301.171875 288.585938 299.535156 289.707031 298.796875 291.40625 Z M 322.210938 297.339844 C 324.828125 297.238281 326.875 295.066406 326.828125 292.453125 L 325.925781 240.921875 L 341.609375 241.160156 L 341.214844 292.6875 C 341.199219 295.316406 343.292969 297.476562 345.925781 297.527344 L 353.355469 297.679688 L 333.839844 321.167969 L 313.410156 297.695312 Z M 322.210938 297.339844 " fill-opacity="1" fill-rule="nonzero"/><g clip-path="url(#16e54b89ea)"><path fill="#000000" d="M 369.839844 265.847656 C 369.109375 267.542969 369.414062 269.507812 370.625 270.902344 L 403.558594 308.75 C 404.472656 309.800781 405.796875 310.410156 407.195312 310.410156 C 407.210938 310.410156 407.234375 310.410156 407.25 310.410156 C 408.664062 310.394531 410.003906 309.761719 410.902344 308.671875 L 442.535156 270.589844 C 443.714844 269.171875 443.980469 267.199219 443.207031 265.527344 C 442.4375 263.851562 440.777344 262.753906 438.929688 262.722656 L 425.023438 262.433594 L 425.449219 206.820312 C 425.464844 204.175781 423.355469 202.023438 420.707031 201.980469 L 393.4375 201.566406 C 392.140625 201.523438 390.878906 202.054688 389.957031 202.976562 C 389.035156 203.898438 388.527344 205.15625 388.550781 206.453125 L 389.53125 262.328125 L 374.082031 262.960938 C 372.214844 263.019531 370.570312 264.148438 369.839844 265.847656 Z M 394.601562 271.726562 C 397.21875 271.621094 399.265625 269.453125 399.21875 266.839844 L 398.246094 211.234375 L 415.765625 211.507812 L 415.339844 267.097656 C 415.324219 269.722656 417.417969 271.886719 420.050781 271.933594 L 428.730469 272.121094 L 407.089844 298.175781 L 384.445312 272.152344 Z M 394.601562 271.726562 " fill-opacity="1" fill-rule="nonzero"/></g><path fill="#000000" d="M 347.507812 550.972656 C 349.335938 551.757812 351.308594 552.140625 353.292969 552.140625 C 355.449219 552.140625 357.632812 551.675781 359.664062 550.765625 C 366.667969 547.589844 370.480469 539.332031 368.339844 531.960938 C 366.195312 524.582031 358.554688 519.628906 350.941406 520.6875 C 343.324219 521.746094 337.324219 528.585938 337.273438 536.269531 C 337.21875 546.605469 344.585938 549.738281 347.363281 550.917969 Z M 352.273438 530.203125 C 355.113281 529.8125 358.300781 531.878906 359.09375 534.628906 C 359.886719 537.375 358.300781 540.820312 355.691406 542.007812 C 354.285156 542.640625 352.601562 542.695312 351.285156 542.136719 L 351.140625 542.070312 C 348.421875 540.917969 346.886719 540.074219 346.914062 536.316406 C 346.929688 533.457031 349.433594 530.597656 352.273438 530.203125 Z M 352.273438 530.203125 " fill-opacity="1" fill-rule="nonzero"/><path fill="#000000" d="M 384.644531 544.554688 C 377.027344 545.613281 371.027344 552.453125 370.984375 560.136719 C 370.929688 570.464844 378.296875 573.605469 381.066406 574.785156 L 381.203125 574.839844 C 383.03125 575.625 385.003906 576.011719 386.988281 576.011719 C 389.144531 576.011719 391.328125 575.546875 393.359375 574.632812 C 400.363281 571.460938 404.175781 563.199219 402.042969 555.828125 C 399.898438 548.449219 392.257812 543.488281 384.644531 544.554688 Z M 389.386719 565.875 C 387.984375 566.507812 386.296875 566.5625 384.988281 566.003906 L 384.84375 565.9375 C 382.132812 564.785156 380.589844 563.945312 380.617188 560.1875 C 380.632812 557.324219 383.136719 554.472656 385.976562 554.074219 C 386.210938 554.039062 386.449219 554.023438 386.683594 554.023438 C 389.324219 554.023438 392.066406 555.972656 392.796875 558.496094 C 393.582031 561.242188 391.996094 564.695312 389.386719 565.875 Z M 389.386719 565.875 " fill-opacity="1" fill-rule="nonzero"/><g clip-path="url(#9e80649f2d)"><path fill="#000000" d="M 355.226562 570.59375 C 347.609375 571.652344 341.609375 578.492188 341.558594 586.175781 C 341.503906 596.503906 348.871094 599.644531 351.648438 600.824219 L 351.78125 600.878906 C 353.613281 601.664062 355.585938 602.050781 357.570312 602.050781 C 359.726562 602.050781 361.910156 601.585938 363.941406 600.671875 C 370.945312 597.5 374.757812 589.238281 372.625 581.867188 C 370.480469 574.488281 362.832031 569.527344 355.226562 570.59375 Z M 359.96875 591.914062 C 358.5625 592.546875 356.878906 592.601562 355.570312 592.042969 L 355.425781 591.976562 C 352.714844 590.824219 351.171875 589.984375 351.199219 586.226562 C 351.214844 583.363281 353.71875 580.511719 356.558594 580.113281 C 359.398438 579.710938 362.585938 581.785156 363.378906 584.535156 C 364.171875 587.28125 362.578125 590.726562 359.96875 591.914062 Z M 359.96875 591.914062 " fill-opacity="1" fill-rule="nonzero"/></g></svg>