<svg xmlns="http://www.w3.org/2000/svg" xmlns:xlink="http://www.w3.org/1999/xlink" width="1000" zoomAndPan="magnify" viewBox="0 0 750 749.999995" height="1000" preserveAspectRatio="xMidYMid meet" version="1.0"><defs><clipPath id="17b3e0dd79"><path d="M 56.480469 101.902344 L 694 101.902344 L 694 648.101562 L 56.480469 648.101562 Z M 56.480469 101.902344 " clip-rule="nonzero"/></clipPath><clipPath id="8820d88a05"><path d="M 83.480469 101.902344 L 666.519531 101.902344 C 681.429688 101.902344 693.519531 113.988281 693.519531 128.902344 L 693.519531 621.101562 C 693.519531 636.011719 681.429688 648.101562 666.519531 648.101562 L 83.480469 648.101562 C 68.570312 648.101562 56.480469 636.011719 56.480469 621.101562 L 56.480469 128.902344 C 56.480469 113.988281 68.570312 101.902344 83.480469 101.902344 Z M 83.480469 101.902344 " clip-rule="nonzero"/></clipPath><clipPath id="9f8e4f01d4"><path d="M 0.480469 0.902344 L 637.601562 0.902344 L 637.601562 547.101562 L 0.480469 547.101562 Z M 0.480469 0.902344 " clip-rule="nonzero"/></clipPath><clipPath id="a140637de8"><path d="M 27.480469 0.902344 L 610.519531 0.902344 C 625.429688 0.902344 637.519531 12.988281 637.519531 27.902344 L 637.519531 520.101562 C 637.519531 535.011719 625.429688 547.101562 610.519531 547.101562 L 27.480469 547.101562 C 12.570312 547.101562 0.480469 535.011719 0.480469 520.101562 L 0.480469 27.902344 C 0.480469 12.988281 12.570312 0.902344 27.480469 0.902344 Z M 27.480469 0.902344 " clip-rule="nonzero"/></clipPath><clipPath id="8df004fbdd"><rect x="0" width="638" y="0" height="548"/></clipPath><clipPath id="80ded28920"><path d="M 209 231.839844 L 543 231.839844 L 543 573 L 209 573 Z M 209 231.839844 " clip-rule="nonzero"/></clipPath><clipPath id="71f01c2c70"><path d="M 463 554 L 560.011719 554 L 560.011719 596.339844 L 463 596.339844 Z M 463 554 " clip-rule="nonzero"/></clipPath><clipPath id="f7f2ceb0b5"><path d="M 190.261719 498 L 304 498 L 304 596.339844 L 190.261719 596.339844 Z M 190.261719 498 " clip-rule="nonzero"/></clipPath><clipPath id="56b3b72bcc"><path d="M 423 574 L 492 574 L 492 596.339844 L 423 596.339844 Z M 423 574 " clip-rule="nonzero"/></clipPath><clipPath id="15e2458b76"><path d="M 192 570 L 299 570 L 299 596.339844 L 192 596.339844 Z M 192 570 " clip-rule="nonzero"/></clipPath><clipPath id="f7325e218c"><path d="M 289 576 L 327 576 L 327 596.339844 L 289 596.339844 Z M 289 576 " clip-rule="nonzero"/></clipPath></defs><rect x="-75" width="900" fill="#ffffff" y="-74.999999" height="899.999994" fill-opacity="1"/><rect x="-75" width="900" fill="#ffffff" y="-74.999999" height="899.999994" fill-opacity="1"/><g clip-path="url(#17b3e0dd79)"><g clip-path="url(#8820d88a05)"><g transform="matrix(1, 0, 0, 1, 56, 101)"><g clip-path="url(#8df004fbdd)"><g clip-path="url(#9f8e4f01d4)"><g clip-path="url(#a140637de8)"><path fill="#e2e2e2" d="M 0.480469 0.902344 L 638.425781 0.902344 L 638.425781 547.101562 L 0.480469 547.101562 Z M 0.480469 0.902344 " fill-opacity="1" fill-rule="nonzero"/></g></g></g></g></g></g><g clip-path="url(#80ded28920)"><path fill="#482c20" d="M 321.140625 288.511719 C 339.03125 271.144531 355.957031 252.847656 372.832031 234.519531 C 375.855469 231.238281 377.347656 231.03125 380.40625 234.332031 C 400.257812 255.757812 420.300781 277.007812 440.285156 298.3125 C 452.15625 307.058594 462.101562 317.707031 471.0625 329.335938 C 475.066406 335.691406 480.847656 340.484375 485.863281 345.933594 C 503.558594 365.171875 521.488281 384.1875 539.125 403.480469 C 540.617188 405.109375 545.78125 407.058594 540.789062 410.605469 C 537.503906 412.941406 534.816406 419.539062 530.113281 411.894531 C 527.953125 414.601562 529.226562 417.34375 529.042969 419.882812 C 528.886719 422.109375 529.765625 424.90625 527.976562 426.359375 C 522.902344 430.480469 523.917969 435.996094 523.925781 441.289062 C 523.984375 478.898438 524.097656 516.507812 524.191406 554.121094 C 526.917969 557.359375 526.203125 561.265625 526.105469 564.96875 C 526.03125 567.730469 526.460938 571.296875 522.804688 572.117188 C 519.578125 572.839844 517.441406 570.652344 516.132812 567.785156 C 515.617188 566.273438 515.546875 564.699219 515.554688 563.121094 C 515.707031 521.328125 515.359375 479.535156 515.5 437.738281 C 515.511719 433.644531 516.011719 429.777344 517.878906 425.980469 C 522.25 417.082031 522.488281 408.28125 516.144531 400.035156 C 511.414062 394.324219 506.464844 388.882812 500.660156 384.117188 C 496.058594 380.335938 492.785156 375.136719 488.523438 370.816406 C 477.769531 359.90625 466.730469 349.074219 456.816406 337.550781 C 445.710938 324.644531 433.476562 312.898438 422.054688 300.367188 C 412.570312 289.96875 403.21875 279.390625 393.398438 269.253906 C 388.492188 264.1875 382.621094 260.085938 378.390625 254.371094 C 376.519531 251.847656 375.011719 253.074219 373.578125 254.867188 C 367.675781 262.230469 360.375 268.351562 354.367188 275.519531 C 343.304688 288.714844 330.558594 300.230469 318.890625 312.808594 C 313.269531 318.871094 306.617188 324.359375 301.890625 330.855469 C 293.941406 341.777344 283.183594 349.730469 274.476562 359.835938 C 262.535156 373.707031 249.613281 386.9375 236.402344 399.777344 C 226.050781 410.773438 225.3125 417.125 233.273438 429.519531 C 235.734375 433.347656 236.183594 437.441406 236.183594 441.777344 C 236.152344 481.171875 236.226562 520.570312 236.144531 559.972656 C 236.113281 560.875 236.070312 561.777344 235.828125 562.636719 C 235.097656 565.207031 233.707031 567.347656 230.730469 566.9375 C 227.195312 566.453125 226.730469 563.296875 227.171875 560.738281 C 227.9375 556.308594 228.21875 551.914062 228.246094 547.441406 C 228.339844 531.121094 227.882812 514.796875 228.484375 498.480469 C 228.535156 479.574219 228.578125 460.660156 228.652344 441.753906 C 228.664062 438.820312 229.003906 435.8125 226.585938 433.546875 C 222.0625 429.304688 219.542969 424.382812 220.675781 417.96875 C 220.921875 416.578125 221.140625 415.28125 218.347656 415.355469 C 214.117188 415.46875 212.304688 411.117188 209.867188 408.425781 C 207.957031 406.3125 211.164062 405.121094 212.339844 403.890625 C 234.871094 380.25 257.566406 356.765625 280.019531 333.054688 C 284.453125 328.371094 289.882812 324.496094 292.828125 318.492188 C 298.046875 314.027344 297.75 305.730469 304.996094 302.324219 C 311.4375 299.292969 314.558594 291.769531 321.140625 288.511719 Z M 321.140625 288.511719 " fill-opacity="1" fill-rule="nonzero"/></g><path fill="#a46033" d="M 423.921875 595.699219 C 422.171875 595.757812 420.414062 595.8125 418.664062 595.867188 C 416.367188 592.65625 415.070312 588.949219 411.6875 586.222656 C 408.710938 583.824219 409.730469 579.59375 410.976562 576.058594 C 412.804688 573.703125 412.417969 570.929688 412.421875 568.253906 C 412.46875 526.359375 412.453125 484.46875 412.285156 442.578125 C 412.25 433.511719 411.820312 433.101562 402.679688 433.082031 C 384.410156 433.042969 366.144531 433.023438 347.878906 433.09375 C 339.996094 433.125 339.425781 433.664062 339.417969 441.570312 C 339.371094 483.238281 339.367188 524.902344 339.433594 566.570312 C 339.441406 569.675781 339.152344 572.910156 341.066406 575.703125 C 342.789062 580.679688 342.714844 585.289062 337.609375 588.289062 C 334.542969 590.089844 335.3125 594.625 331.738281 595.890625 C 329.992188 595.839844 328.242188 595.785156 326.496094 595.730469 C 323.683594 592.746094 324.386719 588.976562 324.429688 585.472656 C 324.480469 580.878906 322.507812 579.023438 317.960938 579.03125 C 308.515625 579.046875 299.070312 579.226562 289.621094 578.914062 C 287.632812 577.929688 287.375 576.628906 288.902344 575 C 297.289062 572.582031 305.894531 573.828125 314.402344 573.585938 C 323.886719 573.316406 324.246094 573.175781 324.253906 563.617188 C 324.28125 523.28125 324.28125 482.945312 324.253906 442.613281 C 324.246094 433.40625 323.90625 433.09375 314.78125 433.066406 C 303.273438 433.035156 291.769531 433.066406 280.261719 433.054688 C 276.59375 433.050781 273.621094 433.738281 272.453125 437.863281 C 271.507812 441.207031 268.746094 442.113281 265.582031 442.21875 C 263.328125 442.296875 261.070312 442.3125 258.8125 442.285156 C 249.390625 442.160156 248.21875 440.796875 248.898438 430.921875 C 248.820312 431.886719 248.910156 429.925781 249.476562 430.59375 C 249.722656 430.882812 250.277344 430.511719 250.296875 430.1875 C 246.558594 430.101562 246.90625 427.621094 247.3125 425.105469 C 247.75 422.398438 249.15625 420.539062 251.921875 419.929688 C 254.140625 419.441406 256.410156 419.550781 258.660156 419.550781 C 336.425781 419.539062 414.195312 419.523438 491.964844 419.515625 C 493.539062 419.515625 495.117188 419.519531 496.695312 419.570312 C 505.089844 419.839844 506.605469 421.960938 504.675781 430.714844 C 503.929688 432.148438 501.777344 432.605469 501.53125 434.121094 C 500.390625 441.160156 495.496094 441.324219 489.96875 440.996094 C 485.921875 440.757812 481.851562 441.003906 477.792969 440.855469 C 475.214844 440.761719 472.59375 440.261719 471.476562 437.71875 C 469.539062 433.324219 465.871094 433.203125 461.921875 432.988281 C 452.21875 432.457031 442.570312 434.179688 432.875 433.46875 C 429.558594 433.222656 427.878906 434.902344 427.582031 438.171875 C 427.339844 440.875 427.394531 443.574219 427.386719 446.273438 C 427.285156 489.75 427.574219 533.222656 427.253906 576.695312 C 427.398438 580.753906 427.433594 584.8125 427.234375 588.863281 C 427.105469 591.570312 426.984375 594.371094 423.921875 595.699219 Z M 423.921875 595.699219 " fill-opacity="1" fill-rule="nonzero"/><g clip-path="url(#71f01c2c70)"><path fill="#96993b" d="M 517.378906 567.378906 C 518.660156 569.609375 520.644531 571.71875 523.082031 570.839844 C 525.09375 570.117188 523.796875 567.289062 523.902344 565.414062 C 524.113281 561.65625 524.109375 557.882812 524.195312 554.117188 C 536.871094 554.21875 541.550781 557.339844 546.191406 569.324219 C 547.066406 571.574219 548.585938 571.441406 550.308594 571.902344 C 559.183594 574.285156 563.097656 587.503906 557.199219 594.519531 C 555.980469 595.96875 554.621094 596.144531 553.054688 596.132812 C 523.597656 595.964844 494.136719 596.757812 464.691406 595.617188 C 461.84375 589.292969 467.496094 586.855469 470.890625 586.308594 C 478.863281 585.027344 484.222656 579.652344 490.726562 576.121094 C 494.902344 572.578125 498.640625 568.40625 504.054688 566.582031 C 507.78125 565.683594 511.699219 565.800781 515.347656 564.453125 C 517.113281 564.675781 516.332031 566.660156 517.378906 567.378906 Z M 517.378906 567.378906 " fill-opacity="1" fill-rule="nonzero"/></g><g clip-path="url(#f7f2ceb0b5)"><path fill="#9da03c" d="M 288.464844 576.0625 C 288.523438 577.054688 288.636719 578.011719 289.855469 578.269531 C 298.996094 580.453125 304.363281 587.359375 303.339844 595.625 C 300.699219 596.265625 298.054688 596.363281 295.40625 595.664062 C 293.878906 591.707031 290.191406 592.152344 287.410156 592.65625 C 281.515625 593.726562 276.46875 593.082031 271.535156 589.359375 C 267.804688 586.546875 263.222656 587.90625 259.15625 589.078125 C 255.5625 590.117188 252.574219 590.433594 250.300781 586.855469 C 248.761719 584.433594 246.835938 584.445312 244.570312 585.957031 C 235.191406 592.222656 224.585938 591.699219 214.019531 591.367188 C 209.613281 591.230469 209.585938 588.171875 210.105469 585.171875 C 210.953125 580.234375 214.808594 577.253906 217.09375 574.640625 C 213.066406 579.621094 206.964844 584.164062 201.714844 589.59375 C 198.988281 592.410156 195.976562 593.890625 192.0625 592.230469 C 187.996094 581.984375 190.753906 575.703125 200.886719 573.019531 C 203.179688 572.410156 203.527344 571.125 204.082031 569.414062 C 206.9375 560.585938 212.507812 555.582031 221.820312 556.222656 C 228.316406 556.667969 228.066406 553.816406 228.042969 549.445312 C 227.957031 533.75 228.019531 518.054688 228.058594 502.363281 C 228.0625 501.050781 228.335938 499.746094 228.484375 498.453125 C 228.539062 517.769531 228.59375 537.066406 228.644531 556.363281 C 228.648438 557.933594 228.410156 559.53125 228.617188 561.070312 C 228.851562 562.824219 227.46875 565.652344 230.632812 565.859375 C 233.433594 566.042969 234.378906 563.910156 234.453125 561.363281 C 234.472656 560.695312 234.671875 560.035156 234.789062 559.371094 C 235.6875 558.714844 236.570312 558.78125 237.4375 559.425781 C 239.921875 564.699219 245.644531 562.742188 249.570312 564.820312 C 255.824219 570.929688 263.1875 573.003906 271.984375 572.765625 C 277.417969 572.625 283.515625 572.359375 288.464844 576.0625 Z M 288.464844 576.0625 " fill-opacity="1" fill-rule="nonzero"/></g><path fill="#b09985" d="M 331.738281 595.886719 C 333.011719 594.195312 333.140625 592.242188 333.097656 590.21875 C 333.070312 588.914062 333.09375 586.746094 334.417969 586.882812 C 342.507812 587.730469 339.113281 580.6875 341.175781 577.453125 C 340.4375 576.132812 341.316406 575.617188 342.316406 575.152344 C 344.441406 574.917969 346.554688 575.382812 348.683594 575.191406 C 349.808594 575.15625 350.933594 575.164062 352.058594 575.09375 C 359.261719 575.191406 366.453125 574.90625 373.652344 575.109375 C 374.488281 575.085938 375.316406 575.070312 376.152344 575.042969 C 384.273438 574.847656 392.402344 574.6875 400.5 575.046875 C 405.683594 575.277344 407.113281 573.335938 407.085938 568.421875 C 406.941406 539.347656 406.992188 510.277344 407.039062 481.203125 C 407.046875 477.890625 406.355469 474.375 408.890625 471.507812 C 412.097656 471.679688 412.257812 474.3125 412.257812 476.378906 C 412.246094 509.460938 412.949219 542.546875 411.941406 575.625 C 411.929688 576.074219 411.796875 576.515625 411.71875 576.957031 C 411.871094 581.226562 409.386719 586.402344 417.351562 587.140625 C 419.722656 587.359375 417.972656 592.863281 418.660156 595.863281 C 389.6875 595.875 360.714844 595.882812 331.738281 595.886719 Z M 331.738281 595.886719 " fill-opacity="1" fill-rule="nonzero"/><path fill="#9d542e" d="M 471.066406 329.335938 C 460.195312 319.597656 450.410156 308.785156 440.285156 298.3125 C 443.125 298.148438 442.316406 296.027344 442.359375 294.398438 C 442.570312 286.257812 442.765625 278.113281 442.960938 269.96875 C 450.90625 264.453125 454.972656 272.070312 460.707031 275.472656 C 460.972656 275.789062 461.171875 274.269531 460.53125 274.558594 C 459.773438 274.902344 458.855469 274.125 458.570312 273.167969 C 457.824219 270.6875 459.078125 269.367188 461.296875 268.644531 C 463.140625 268.042969 465.339844 268.457031 467.679688 266.222656 C 458.992188 263.515625 450.710938 265.9375 442.738281 264.707031 C 438.9375 264.335938 436.699219 262.964844 437.28125 258.425781 C 437.933594 253.335938 441.605469 255.503906 443.960938 255.4375 C 453.160156 255.167969 462.375 255.257812 471.582031 255.28125 C 473.703125 255.289062 476.558594 254.617188 476.527344 258.09375 C 476.511719 260.414062 478.328125 263.875 473.855469 264.339844 C 470.101562 264.726562 471.464844 267.628906 471.453125 269.492188 C 471.300781 287.203125 471.316406 304.917969 471.265625 322.628906 C 471.257812 324.867188 471.132812 327.101562 471.066406 329.335938 Z M 471.066406 329.335938 " fill-opacity="1" fill-rule="nonzero"/><path fill="#ae6037" d="M 321.140625 288.511719 C 315.105469 294.675781 311.171875 303.269531 301.566406 305.429688 C 301.320312 305.484375 303.976562 308.351562 301.597656 310.304688 C 298.511719 312.839844 295.738281 315.75 292.828125 318.496094 C 291.953125 302.785156 292.34375 287.074219 292.855469 271.367188 C 294.332031 269.726562 296.316406 269.496094 298.335938 269.449219 C 300.453125 269.394531 301.871094 268.679688 303.222656 266.761719 C 307.046875 261.347656 314.082031 260.113281 320.808594 263.234375 C 320.917969 271.660156 321.03125 280.085938 321.140625 288.511719 Z M 321.140625 288.511719 " fill-opacity="1" fill-rule="nonzero"/><g clip-path="url(#56b3b72bcc)"><path fill="#6f3f26" d="M 491.347656 577.25 C 484.863281 580.535156 480.726562 587.734375 471.867188 587.445312 C 468.851562 587.34375 464.1875 590.335938 464.6875 595.617188 C 451.101562 596.152344 437.515625 596.359375 423.925781 595.699219 C 426.734375 589.527344 424.378906 582.953125 425.414062 576.644531 C 427.5 574.96875 430.007812 574.925781 432.488281 574.898438 C 450.058594 574.699219 467.628906 574.925781 485.199219 575.175781 C 487.433594 575.207031 489.765625 575.167969 491.347656 577.25 Z M 491.347656 577.25 " fill-opacity="1" fill-rule="nonzero"/></g><g clip-path="url(#15e2458b76)"><path fill="#8b8b38" d="M 192.066406 592.234375 C 196.460938 591.996094 199.5 589.589844 202.550781 586.570312 C 208.492188 580.695312 214.886719 575.273438 221.730469 570.292969 C 218.71875 574.3125 215.625 578.273438 212.726562 582.375 C 211.40625 584.246094 210.621094 586.578125 211.582031 588.773438 C 212.878906 591.734375 215.070312 588.878906 216.859375 589.199219 C 224.460938 590.554688 231.890625 590.148438 239.066406 586.917969 C 240.691406 586.183594 242.445312 585.84375 243.78125 584.496094 C 246.996094 581.25 249.78125 580.621094 251.628906 585.84375 C 252.675781 588.8125 254.449219 588.953125 257.441406 587.929688 C 263.574219 585.828125 269.84375 584.160156 275.410156 589.941406 C 277.457031 592.0625 280.703125 592.667969 283.644531 591.503906 C 288.96875 589.390625 293.625 591.492188 298.441406 593.003906 C 298.144531 595.109375 295.957031 594.332031 295.40625 595.660156 C 262.691406 595.816406 229.976562 595.960938 197.261719 596.160156 C 194.390625 596.183594 192.40625 595.382812 192.066406 592.234375 Z M 192.066406 592.234375 " fill-opacity="1" fill-rule="nonzero"/></g><g clip-path="url(#f7325e218c)"><path fill="#714227" d="M 303.339844 595.625 C 302.070312 587.34375 296.722656 582.21875 289.859375 578.269531 C 301.066406 575.691406 312.417969 577.601562 323.699219 577.253906 C 326.632812 577.160156 326.375 579.679688 326.398438 581.667969 C 326.457031 586.355469 326.464844 591.042969 326.496094 595.730469 C 318.777344 596.191406 311.054688 596.484375 303.339844 595.625 Z M 303.339844 595.625 " fill-opacity="1" fill-rule="nonzero"/></g><path fill="#ae6037" d="M 292.5625 257.582031 C 289.71875 256.816406 286.351562 257.265625 286.785156 252.226562 C 287.21875 247.238281 290.441406 248.570312 293.035156 248.550781 C 302.289062 248.488281 311.542969 248.617188 320.800781 248.675781 C 323.890625 248.695312 326.359375 248.851562 326.542969 253.230469 C 326.730469 257.710938 324.382812 257.902344 321.210938 257.773438 C 311.65625 258.871094 302.105469 258.859375 292.5625 257.582031 Z M 292.5625 257.582031 " fill-opacity="1" fill-rule="nonzero"/><path fill="#763719" d="M 292.5625 257.582031 C 302.128906 255.667969 311.675781 255.609375 321.214844 257.773438 C 321.078125 259.59375 320.945312 261.414062 320.808594 263.234375 C 316.996094 263.210938 313.25 263.34375 309.472656 264.292969 C 306.945312 264.929688 304.609375 264.867188 304.632812 268.386719 C 304.648438 271.339844 302.289062 271.144531 300.257812 271.199219 C 297.789062 271.261719 295.324219 271.308594 292.855469 271.363281 C 292.828125 270.847656 292.800781 270.328125 292.769531 269.8125 C 294.195312 268.007812 296.878906 268.921875 298.488281 267.230469 C 296.890625 265.523438 294.203125 266.4375 292.773438 264.644531 C 292.703125 262.289062 292.632812 259.933594 292.5625 257.582031 Z M 292.5625 257.582031 " fill-opacity="1" fill-rule="nonzero"/><path fill="#733318" d="M 442.738281 264.710938 C 450.964844 261.597656 459.460938 263.730469 467.828125 263.46875 C 469.488281 263.414062 469.871094 264.953125 469.921875 266.375 C 469.984375 268.066406 469.628906 269.597656 467.597656 269.800781 C 465.816406 269.980469 464.011719 269.917969 462.222656 270.007812 C 461.089844 270.066406 459.859375 270.21875 459.601562 271.570312 C 459.253906 273.394531 460.589844 273.683594 461.988281 274.007812 C 463.210938 274.289062 465.933594 273.359375 464.816406 276.074219 C 464.140625 277.71875 462.726562 277.246094 460.539062 276.65625 C 454.394531 274.992188 450.710938 266.878906 442.964844 269.96875 C 442.890625 268.214844 442.8125 266.464844 442.738281 264.710938 Z M 442.738281 264.710938 " fill-opacity="1" fill-rule="nonzero"/><path fill="#ae6037" d="M 292.773438 264.648438 C 295.828125 265.421875 301.472656 262.011719 301.472656 267.234375 C 301.46875 272.445312 295.804688 268.96875 292.769531 269.816406 C 292.230469 268.089844 292.199219 266.367188 292.773438 264.648438 Z M 292.773438 264.648438 " fill-opacity="1" fill-rule="nonzero"/><path fill="#7f401f" d="M 503.585938 431.328125 C 504.183594 421.394531 504.183594 421.417969 494.277344 421.421875 C 415.203125 421.4375 336.128906 421.429688 257.054688 421.542969 C 254.457031 421.546875 251.027344 419.8125 249.316406 423.601562 C 245.832031 431.332031 252.46875 429.121094 255.839844 430.609375 C 253.542969 430.777344 251.25 430.941406 248.957031 431.109375 C 249.089844 434.3125 249.273438 437.515625 249.183594 440.722656 C 249 441.851562 248.550781 442.808594 247.507812 443.394531 C 244.875 443.015625 244.484375 441.09375 244.472656 438.945312 C 244.460938 436.703125 244.527344 434.457031 244.605469 432.21875 C 244.765625 427.808594 244.863281 423.582031 239.210938 422.195312 C 237.597656 421.800781 237.066406 420.03125 236.707031 418.441406 C 237.007812 411.386719 234.597656 404.308594 236.835938 397.265625 C 249.054688 384.984375 260.703125 372.140625 272.757812 359.707031 C 278.386719 353.902344 283.566406 347.265625 289.433594 341.582031 C 301.917969 329.492188 313.085938 316.160156 325.492188 303.96875 C 331.488281 298.074219 337.035156 291.140625 343.226562 285.382812 C 352.679688 276.59375 359.308594 265.148438 370.078125 257.6875 C 371.179688 256.925781 371.195312 254.757812 372.128906 253.566406 C 373.328125 252.03125 374.507812 249.824219 376.800781 250.160156 C 378.929688 250.476562 380.445312 252.285156 380.496094 254.449219 C 380.597656 259.066406 385.480469 256.640625 387.289062 259.484375 C 390.605469 264.699219 395.195312 269.03125 399.613281 273.457031 C 409.925781 283.792969 419.652344 294.726562 429.609375 305.382812 C 437.003906 313.300781 445.457031 320.285156 452.074219 328.785156 C 458.984375 337.660156 468.25 344.332031 474.808594 353.113281 C 482.515625 363.4375 492.933594 371.023438 500.476562 381.597656 C 504.359375 387.046875 510.613281 391.914062 516 396.824219 C 516.746094 404.78125 517.574219 412.738281 515.722656 420.660156 C 513.171875 422.386719 506.226562 429.902344 504.871094 432.40625 C 503.992188 432.582031 503.5625 432.226562 503.585938 431.328125 Z M 503.585938 431.328125 " fill-opacity="1" fill-rule="nonzero"/><path fill="#482c20" d="M 236.839844 397.269531 C 238.117188 404.308594 237.996094 411.4375 238.195312 418.546875 C 240.433594 462.398438 238.640625 506.28125 239.15625 550.144531 C 239.195312 553.449219 239.683594 557 236.871094 559.683594 C 236.179688 559.578125 235.484375 559.476562 234.789062 559.375 C 234.585938 557.375 234.203125 555.375 234.203125 553.378906 C 234.195312 515.316406 234.203125 477.253906 234.320312 439.195312 C 234.332031 435.925781 233.902344 433.117188 231.824219 430.421875 C 222.636719 418.484375 223.214844 410.550781 233.851562 399.882812 C 234.785156 398.949219 235.839844 398.140625 236.839844 397.269531 Z M 236.839844 397.269531 " fill-opacity="1" fill-rule="nonzero"/><path fill="#482c20" d="M 514.433594 421.480469 C 514.519531 415.289062 514.503906 409.09375 514.75 402.910156 C 514.835938 400.871094 513.632812 398.4375 516.003906 396.824219 C 524.75 406.503906 525.742188 416.929688 518.808594 427.933594 C 517.613281 429.832031 517.714844 431.765625 517.722656 433.765625 C 517.847656 470.90625 518.03125 508.042969 518.089844 545.183594 C 518.101562 552.582031 517.628906 559.984375 517.382812 567.382812 C 515.933594 567.320312 516.296875 565.878906 515.695312 565.171875 C 512.746094 560.328125 512.605469 554.847656 512.585938 549.496094 C 512.421875 509.617188 512.488281 469.738281 512.527344 429.859375 C 512.527344 426.945312 512.402344 423.953125 514.433594 421.480469 Z M 514.433594 421.480469 " fill-opacity="1" fill-rule="nonzero"/><path fill="#fadbb3" d="M 503.585938 431.328125 C 503.597656 431.6875 503.742188 431.984375 504.011719 432.222656 C 506.386719 434.824219 506.015625 438.089844 506.023438 441.1875 C 506.082031 480.285156 506.074219 519.386719 506.035156 558.484375 C 506.03125 561.605469 506.292969 564.832031 504.128906 567.519531 C 499.867188 570.761719 495.609375 574.003906 491.347656 577.246094 C 471.832031 577.125 452.320312 577.007812 432.804688 576.871094 C 430.339844 576.855469 427.878906 576.722656 425.414062 576.644531 C 425.445312 530.242188 425.535156 483.839844 425.414062 437.4375 C 425.398438 432.738281 426.738281 431.203125 431.519531 431.3125 C 443.234375 431.589844 454.960938 431.296875 466.679688 431.308594 C 468.804688 431.308594 472.164062 430.648438 472.015625 433.773438 C 471.6875 440.574219 476.113281 439.257812 480.027344 439.230469 C 483.183594 439.210938 486.339844 439.265625 489.5 439.253906 C 493.957031 439.238281 499.777344 441.65625 499.128906 433.117188 C 498.960938 430.941406 501.863281 431.460938 503.585938 431.328125 Z M 503.585938 431.328125 " fill-opacity="1" fill-rule="nonzero"/><path fill="#f9dab1" d="M 247.996094 440.238281 C 248.40625 437.203125 246.9375 433.972656 248.960938 431.109375 C 249.550781 439.503906 254.492188 441.136719 261.9375 440.105469 C 266.574219 439.460938 272.554688 441.878906 271.335938 433.289062 C 271.023438 431.097656 273.320312 431.300781 274.839844 431.296875 C 290.609375 431.242188 306.382812 431.332031 322.148438 431.101562 C 326.75 431.035156 326.429688 433.691406 326.425781 436.761719 C 326.390625 470.289062 326.410156 503.816406 326.40625 537.339844 C 326.402344 548.367188 326.21875 559.398438 326.457031 570.414062 C 326.550781 574.664062 325.527344 576.339844 320.886719 576.1875 C 310.089844 575.835938 299.277344 576.066406 288.464844 576.0625 C 279.316406 575.664062 270.371094 573.558594 261.019531 574.15625 C 255.484375 574.511719 251.667969 569.019531 248.199219 564.691406 C 246.160156 563.179688 245.792969 560.917969 245.792969 558.671875 C 245.800781 529.277344 245.121094 499.882812 246.101562 470.507812 C 247.699219 465.746094 247.273438 460.789062 247.402344 455.882812 C 247.480469 452.921875 247.6875 449.972656 250.976562 448.542969 C 255.714844 446.484375 255.488281 444.652344 250.722656 443.015625 C 249.359375 442.550781 248.519531 441.539062 247.996094 440.238281 Z M 247.996094 440.238281 " fill-opacity="1" fill-rule="nonzero"/><path fill="#fadbb1" d="M 411.71875 576.960938 C 409.496094 574.691406 410.4375 571.824219 410.425781 569.238281 C 410.320312 539.042969 410.347656 508.851562 410.238281 478.65625 C 410.230469 476.324219 411.300781 473.660156 409 471.679688 C 406.546875 473.808594 403.554688 473.515625 400.640625 473.515625 C 384.871094 473.53125 369.105469 473.5 353.339844 473.53125 C 345.066406 473.550781 344.695312 473.929688 344.6875 482.398438 C 344.664062 510.292969 344.703125 538.1875 344.648438 566.082031 C 344.640625 569.371094 345.398438 572.917969 342.574219 575.636719 C 342.109375 576.242188 341.644531 576.847656 341.175781 577.453125 C 338.394531 576.820312 337.277344 575.332031 337.285156 572.25 C 337.398438 526.742188 337.402344 481.234375 337.332031 435.726562 C 337.328125 432.207031 338.523438 431.070312 342.0625 431.097656 C 364.617188 431.285156 387.175781 431.445312 409.730469 431.21875 C 415.214844 431.164062 414.648438 434.210938 414.640625 437.671875 C 414.582031 469.664062 414.558594 501.652344 414.523438 533.644531 C 414.507812 545.808594 414.484375 557.972656 414.484375 570.140625 C 414.484375 572.804688 415.089844 575.675781 411.71875 576.960938 Z M 411.71875 576.960938 " fill-opacity="1" fill-rule="nonzero"/><path fill="#9b5c32" d="M 504.128906 567.523438 C 504.097656 535.207031 504.066406 502.894531 504.035156 470.582031 C 504.023438 457.796875 504.019531 445.007812 504.011719 432.222656 C 504.394531 431.457031 505.199219 430.625 505.089844 429.9375 C 503.875 422.269531 507.542969 420.132812 514.4375 421.476562 C 515.738281 460.609375 514.574219 499.75 515.125 538.882812 C 515.246094 547.644531 515.5 556.40625 515.691406 565.167969 C 512.507812 569.253906 508.035156 567.003906 504.128906 567.523438 Z M 504.128906 567.523438 " fill-opacity="1" fill-rule="nonzero"/><path fill="#9c5e34" d="M 248.164062 469.035156 C 248.175781 500.917969 248.1875 532.804688 248.203125 564.691406 C 243.988281 564.011719 237.539062 568.359375 236.875 559.679688 C 236.988281 518.214844 237.066406 476.746094 237.265625 435.277344 C 237.289062 429.699219 236.726562 424.058594 238.195312 418.546875 C 238.445312 419.171875 238.664062 420.328125 238.960938 420.347656 C 249.089844 421.058594 245.929688 428.632812 246.617188 434.480469 C 246.949219 437.3125 243.78125 440.707031 247.742188 443.027344 C 248.847656 443.9375 249.609375 445.261719 249.332031 446.527344 C 247.675781 453.980469 249.15625 461.570312 248.164062 469.035156 Z M 248.164062 469.035156 " fill-opacity="1" fill-rule="nonzero"/><path fill="#a15e34" d="M 342.574219 575.640625 C 342.574219 543.21875 342.703125 510.792969 342.445312 478.375 C 342.402344 472.828125 343.804688 471.125 349.503906 471.25 C 369.328125 471.695312 389.167969 471.582031 409 471.679688 C 409.066406 504.8125 409.082031 537.949219 409.261719 571.082031 C 409.28125 574.902344 408.59375 576.988281 404.175781 576.855469 C 394.484375 576.5625 384.785156 576.605469 375.089844 576.515625 C 373.058594 574.558594 373.304688 571.984375 373.300781 569.539062 C 373.246094 542.503906 373.222656 515.46875 373.316406 488.433594 C 373.328125 485.125 372.945312 481.515625 376.949219 479.75 C 383.257812 476.96875 388.007812 479.941406 388.007812 486.8125 C 388.011719 514.585938 388.261719 542.363281 387.921875 570.960938 C 387.925781 571.035156 389.324219 569.691406 388.550781 570.160156 C 388.328125 570.296875 388.175781 570.113281 388.171875 569.605469 C 388.140625 557.015625 388.507812 544.417969 388.464844 531.847656 C 388.414062 517.457031 388.1875 503.042969 388.074219 488.636719 C 388.007812 480.347656 388.867188 479.195312 394.695312 479.058594 C 401.398438 478.902344 403.726562 481.375 403.578125 489.34375 C 403.113281 514.320312 403.875 539.296875 403.636719 559.164062 C 403.742188 538.828125 403.382812 513.382812 403.601562 487.9375 C 403.679688 478.726562 402.75 477.8125 393.648438 477.730469 C 381.695312 477.621094 369.738281 477.617188 357.78125 477.734375 C 349.734375 477.8125 348.957031 478.582031 348.902344 486.761719 C 348.707031 514.019531 348.734375 541.28125 348.730469 568.542969 C 348.730469 571.21875 349.207031 573.960938 347.992188 576.535156 C 346.101562 576.703125 344.167969 577.199219 342.574219 575.640625 Z M 342.574219 575.640625 " fill-opacity="1" fill-rule="nonzero"/><path fill="#a15e34" d="M 373.765625 576.503906 C 366.09375 576.507812 358.425781 576.511719 350.757812 576.515625 C 348.5625 574.378906 348.792969 571.597656 348.789062 568.914062 C 348.746094 542.128906 348.421875 515.339844 350.027344 488.578125 C 350.136719 486.777344 350.203125 484.976562 350.78125 483.242188 C 351.601562 480.773438 353.34375 479.640625 355.914062 479.796875 C 358.589844 479.960938 359.988281 481.429688 360.160156 484.097656 C 360.21875 484.996094 360.253906 485.894531 360.253906 486.796875 C 360.269531 513.308594 360.28125 539.820312 360.253906 566.335938 C 360.304688 540.027344 360.289062 513.71875 360.25 487.410156 C 360.242188 483.234375 360.644531 479.78125 365.867188 479.132812 C 372.121094 478.359375 374.496094 480.238281 374.457031 486.699219 C 374.261719 516.632812 375.070312 546.578125 373.765625 576.503906 Z M 373.765625 576.503906 " fill-opacity="1" fill-rule="nonzero"/><path fill="#763c1c" d="M 373.765625 576.503906 C 371.964844 574.109375 372.328125 571.300781 372.582031 568.671875 C 375.203125 541.488281 372.964844 514.238281 373.847656 487.039062 C 373.996094 482.347656 372.511719 480.765625 367.742188 480.800781 C 363.160156 480.832031 361.441406 482.027344 361.476562 486.882812 C 361.683594 513.914062 361.597656 540.945312 361.5625 567.980469 C 361.558594 570.269531 362.132812 572.738281 360.347656 575.597656 C 358.347656 572.820312 359.007812 570.332031 359.003906 568.070312 C 358.949219 541.265625 358.984375 514.457031 358.917969 487.648438 C 358.914062 485.527344 359.894531 482.894531 357.546875 481.460938 C 356.578125 480.871094 354.824219 480.953125 353.675781 481.386719 C 351.511719 482.203125 352.207031 484.386719 352.101562 486.09375 C 350.550781 511.257812 350.890625 536.457031 350.84375 561.648438 C 350.832031 566.601562 350.785156 571.558594 350.753906 576.511719 C 349.832031 576.519531 348.910156 576.527344 347.984375 576.535156 C 346.539062 574.5625 346.746094 572.28125 346.746094 570.03125 C 346.738281 541.171875 346.886719 512.3125 346.582031 483.457031 C 346.515625 477.09375 348.683594 475.265625 354.824219 475.429688 C 369.261719 475.804688 383.71875 475.6875 398.160156 475.515625 C 402.933594 475.457031 405.117188 476.832031 405.089844 482.023438 C 404.917969 511.554688 405.003906 541.089844 404.949219 570.628906 C 404.949219 572.0625 405.542969 573.804688 403.53125 575.003906 C 401.378906 573.691406 402.253906 571.472656 402.242188 569.710938 C 402.160156 557.308594 402.980469 544.847656 402.007812 532.523438 C 400.855469 517.898438 402.082031 503.382812 402.28125 488.828125 C 402.359375 483.257812 401.082031 480.785156 394.8125 480.695312 C 388.398438 480.601562 388.566406 484.019531 388.734375 488.347656 C 389.25 501.824219 389.320312 515.34375 389.5 528.792969 C 389.699219 543.914062 389.027344 559.207031 388.660156 575.550781 C 386.730469 572.320312 387.390625 570.019531 387.386719 567.835938 C 387.335938 541.007812 387.234375 514.175781 387.453125 487.347656 C 387.492188 482.34375 386.09375 480.722656 380.972656 480.757812 C 375.925781 480.789062 375.074219 482.839844 375.089844 487.238281 C 375.207031 516.996094 375.109375 546.757812 375.085938 576.515625 C 374.648438 576.511719 374.207031 576.507812 373.765625 576.503906 Z M 373.765625 576.503906 " fill-opacity="1" fill-rule="nonzero"/><path fill="#a76034" d="M 358.785156 391.855469 C 358.828125 399.289062 358.761719 406.726562 358.960938 414.15625 C 359.058594 417.738281 357.523438 418.84375 354.125 418.808594 C 343.410156 418.691406 332.695312 418.667969 321.984375 418.84375 C 318.222656 418.90625 316.820312 417.628906 316.835938 413.789062 C 316.949219 388.109375 316.976562 362.425781 316.832031 336.746094 C 316.800781 331.273438 320.789062 329.222656 324.921875 325.195312 C 325.511719 352.113281 324.015625 377.851562 327.734375 403.519531 C 327.734375 401.566406 327.734375 399.613281 327.734375 397.660156 C 327.730469 374.90625 327.949219 352.148438 327.582031 329.402344 C 327.480469 323.015625 329.523438 318.664062 336.066406 314.914062 C 336.066406 343.808594 336.066406 372.015625 336.066406 400.222656 C 339.175781 398.257812 338.519531 395.765625 338.527344 393.5 C 338.582031 368.492188 338.765625 343.484375 338.425781 318.484375 C 338.335938 312.097656 340.359375 307.75 345.976562 304.589844 C 347.433594 306.378906 346.746094 308.449219 346.75 310.308594 C 346.808594 332.382812 346.765625 354.460938 346.832031 376.535156 C 346.835938 378.929688 346.046875 381.535156 347.992188 383.648438 C 349.082031 389.675781 354.863281 389.542969 358.785156 391.855469 Z M 358.785156 391.855469 " fill-opacity="1" fill-rule="nonzero"/><path fill="#ac673b" d="M 405.34375 301.992188 C 411.222656 303.972656 413.210938 307.753906 413.191406 313.386719 C 413.074219 346.460938 413.148438 379.535156 413.113281 412.605469 C 413.109375 415.347656 414.078125 418.6875 409.261719 418.808594 C 404.019531 418.9375 404.882812 415.324219 405 412.347656 C 406.183594 382.03125 406.449219 351.707031 406.398438 321.367188 C 406.386719 315.070312 404.109375 308.96875 405.34375 301.992188 Z M 405.34375 301.992188 " fill-opacity="1" fill-rule="nonzero"/><path fill="#ab653a" d="M 415.792969 312.179688 C 421.554688 315.871094 424.230469 319.597656 424.066406 325.894531 C 423.636719 342.328125 424.515625 358.808594 423.71875 375.21875 C 423.132812 387.292969 424.871094 399.277344 423.910156 411.292969 C 423.679688 414.164062 425.933594 418.652344 420.035156 418.742188 C 413.644531 418.839844 415.832031 413.957031 415.871094 410.953125 C 416.011719 399.507812 417.0625 387.910156 416.585938 376.652344 C 415.746094 356.847656 416.515625 337.070312 415.796875 317.300781 C 415.75 315.957031 415.792969 314.617188 415.792969 312.179688 Z M 415.792969 312.179688 " fill-opacity="1" fill-rule="nonzero"/><path fill="#ab663b" d="M 434.785156 374.835938 C 434.78125 387.425781 434.816406 400.015625 434.757812 412.605469 C 434.742188 415.347656 435.707031 418.664062 430.894531 418.792969 C 426.28125 418.914062 426.609375 415.996094 426.613281 412.996094 C 426.640625 385.199219 426.640625 357.40625 426.714844 329.609375 C 426.71875 327.960938 425.75 325.5625 427.914062 324.835938 C 429.875 324.175781 430.929688 326.398438 432.089844 327.644531 C 434.355469 330.085938 434.851562 333.101562 434.828125 336.386719 C 434.722656 349.203125 434.785156 362.019531 434.785156 374.835938 Z M 434.785156 374.835938 " fill-opacity="1" fill-rule="nonzero"/><path fill="#a76034" d="M 313.570312 336.722656 C 317.082031 350.375 314.847656 363.441406 314.257812 376.476562 C 313.6875 389.0625 315.003906 401.566406 315.617188 414.101562 C 315.789062 417.628906 314.320312 418.84375 310.867188 418.835938 C 307.484375 418.828125 306.015625 417.792969 306.035156 414.191406 C 306.144531 392.148438 306.089844 370.105469 306.101562 348.058594 C 306.101562 342.976562 309.363281 339.972656 313.570312 336.722656 Z M 313.570312 336.722656 " fill-opacity="1" fill-rule="nonzero"/><path fill="#aa653a" d="M 437.46875 335.128906 C 443.210938 338.839844 445.863281 342.527344 445.75 348.816406 C 445.371094 369.980469 445.632812 391.15625 445.589844 412.324219 C 445.582031 415.289062 446.601562 418.945312 441.339844 418.820312 C 436.519531 418.699219 437.5 415.339844 437.496094 412.601562 C 437.453125 387.164062 437.46875 361.722656 437.46875 335.128906 Z M 437.46875 335.128906 " fill-opacity="1" fill-rule="nonzero"/><path fill="#5b2e16" d="M 358.785156 391.855469 C 357.910156 391.816406 357.011719 391.613281 356.171875 391.761719 C 349.542969 392.949219 346.789062 390.304688 347.996094 383.648438 C 348.035156 368.652344 348.257812 353.652344 348.011719 338.664062 C 347.933594 333.800781 349.121094 331.601562 354.34375 332.109375 C 358.109375 332.476562 361.949219 332.089844 365.757812 332.039062 C 366.988281 330.9375 368.253906 330.976562 369.539062 331.9375 C 370.121094 331.949219 370.699219 331.964844 371.28125 331.980469 C 374.34375 329.8125 377.394531 329.851562 380.441406 332.019531 C 381.4375 332.023438 382.4375 332.027344 383.433594 332.03125 C 386.074219 330.109375 388.710938 329.925781 391.339844 332.046875 C 392.742188 332.054688 394.144531 332.058594 395.546875 332.066406 C 397.84375 330.089844 400.074219 330.488281 402.265625 332.253906 C 402.265625 352.0625 402.265625 371.871094 402.265625 391.679688 C 400.082031 393.582031 397.84375 393.617188 395.5625 391.851562 C 390.542969 391.84375 385.515625 391.832031 380.496094 391.816406 C 377.414062 394 374.328125 394.050781 371.234375 391.84375 C 370.691406 391.851562 370.148438 391.859375 369.605469 391.867188 C 366.542969 394.019531 363.476562 394.019531 360.410156 391.875 C 359.871094 391.871094 359.324219 391.863281 358.785156 391.855469 Z M 358.785156 391.855469 " fill-opacity="1" fill-rule="nonzero"/><path fill="#aa6236" d="M 304.738281 346.445312 C 304.738281 370.363281 304.683594 392.355469 304.792969 414.351562 C 304.808594 418.089844 303.046875 418.871094 299.804688 418.828125 C 296.820312 418.789062 295.234375 418 295.25 414.628906 C 295.335938 395.960938 295.304688 377.289062 295.257812 358.621094 C 295.242188 352.828125 300.371094 351.269531 304.738281 346.445312 Z M 304.738281 346.445312 " fill-opacity="1" fill-rule="nonzero"/><path fill="#aa6439" d="M 448.308594 345.980469 C 454.246094 349.753906 456.59375 353.902344 456.511719 359.96875 C 456.269531 377.503906 456.472656 395.046875 456.425781 412.589844 C 456.417969 415.296875 457.464844 418.695312 452.632812 418.839844 C 447.4375 418.996094 448.324219 415.453125 448.320312 412.417969 C 448.296875 390.613281 448.308594 368.808594 448.308594 345.980469 Z M 448.308594 345.980469 " fill-opacity="1" fill-rule="nonzero"/><path fill="#a76237" d="M 380.441406 332.019531 C 377.386719 332.007812 374.332031 331.992188 371.28125 331.980469 C 371.246094 315.300781 371.21875 298.621094 371.15625 281.945312 C 371.148438 279.660156 371.386719 277.492188 372.394531 275.382812 C 373.683594 272.683594 376.269531 271.878906 378.585938 272.1875 C 381.128906 272.527344 380.617188 275.304688 380.613281 277.257812 C 380.582031 295.507812 380.503906 313.765625 380.441406 332.019531 Z M 380.441406 332.019531 " fill-opacity="1" fill-rule="nonzero"/><path fill="#a96135" d="M 293.898438 358.402344 C 293.898438 377.507812 293.777344 395.742188 293.980469 413.976562 C 294.035156 418.734375 291.507812 418.996094 287.996094 418.792969 C 283.570312 418.53125 284.691406 415.863281 285.121094 413.042969 C 287.0625 400.25 284.65625 387.503906 284.476562 374.730469 C 284.34375 365.367188 284.574219 365.046875 293.898438 358.402344 Z M 293.898438 358.402344 " fill-opacity="1" fill-rule="nonzero"/><path fill="#ab663b" d="M 459.132812 356.792969 C 464.976562 360.621094 467.460938 364.691406 467.339844 370.78125 C 467.058594 384.929688 467.277344 399.089844 467.28125 413.246094 C 467.285156 415.953125 467.703125 418.726562 463.46875 418.828125 C 459.605469 418.921875 459.085938 416.929688 459.097656 413.785156 C 459.167969 395.144531 459.132812 376.507812 459.132812 356.792969 Z M 459.132812 356.792969 " fill-opacity="1" fill-rule="nonzero"/><path fill="#aa6236" d="M 369.539062 331.9375 C 368.28125 331.972656 367.019531 332.003906 365.757812 332.039062 C 361.746094 330.882812 359.839844 328.84375 360.089844 324.0625 C 360.617188 313.996094 360.253906 303.886719 360.265625 293.789062 C 360.269531 292.445312 360.019531 290.996094 360.425781 289.773438 C 361.753906 285.800781 364.574219 281.816406 368.367188 281.796875 C 370.804688 281.785156 369.578125 286.820312 369.597656 289.546875 C 369.707031 303.675781 369.582031 317.808594 369.539062 331.9375 Z M 369.539062 331.9375 " fill-opacity="1" fill-rule="nonzero"/><path fill="#aa6336" d="M 283.078125 368.175781 C 283.078125 384.820312 282.996094 399.597656 283.132812 414.371094 C 283.167969 418.167969 281.304688 419.71875 277.957031 419.90625 C 274.25 420.113281 273.609375 417.628906 273.621094 414.585938 C 273.667969 403.375 273.691406 392.164062 273.632812 380.957031 C 273.605469 375.023438 278.652344 373.058594 283.078125 368.175781 Z M 283.078125 368.175781 " fill-opacity="1" fill-rule="nonzero"/><path fill="#aa6438" d="M 391.339844 332.046875 C 388.703125 332.042969 386.066406 332.035156 383.433594 332.03125 C 383.433594 314.476562 383.433594 296.925781 383.433594 279.101562 C 389.585938 280.644531 391.753906 284.246094 391.585938 290.363281 C 391.203125 304.25 391.386719 318.152344 391.339844 332.046875 Z M 391.339844 332.046875 " fill-opacity="1" fill-rule="nonzero"/><path fill="#ab663b" d="M 469.964844 369.386719 C 476.140625 371.65625 478.269531 375.390625 478.15625 381.027344 C 477.941406 391.789062 478.113281 402.558594 478.113281 413.324219 C 478.113281 416.027344 478.503906 418.789062 474.273438 418.867188 C 470.40625 418.933594 469.917969 416.882812 469.933594 413.785156 C 470.003906 399.214844 469.964844 384.648438 469.964844 369.386719 Z M 469.964844 369.386719 " fill-opacity="1" fill-rule="nonzero"/><path fill="#aa6135" d="M 272.222656 379.191406 C 272.222656 392.367188 272.246094 403.820312 272.199219 415.277344 C 272.191406 417.117188 272.902344 419.800781 269.34375 418.917969 C 266.871094 418.308594 262.871094 420.277344 262.839844 415.355469 C 262.785156 407.042969 262.523438 398.707031 262.96875 390.417969 C 263.230469 385.480469 267.976562 383.472656 272.222656 379.191406 Z M 272.222656 379.191406 " fill-opacity="1" fill-rule="nonzero"/><path fill="#a86337" d="M 402.265625 332.253906 C 400.027344 332.191406 397.789062 332.128906 395.550781 332.066406 C 393.148438 328.347656 394.273438 324.191406 394.21875 320.230469 C 394.070312 310.207031 394.167969 300.179688 394.167969 289.320312 C 400.023438 292.929688 402.765625 296.816406 402.410156 303.300781 C 401.875 312.925781 402.269531 322.601562 402.265625 332.253906 Z M 402.265625 332.253906 " fill-opacity="1" fill-rule="nonzero"/><path fill="#af683b" d="M 480.738281 379.777344 C 486.503906 383.457031 489.523438 387.097656 489.039062 393.410156 C 488.523438 400.125 488.886719 406.914062 488.972656 413.667969 C 489.007812 416.679688 488.714844 418.957031 484.726562 418.867188 C 481.238281 418.785156 480.695312 416.941406 480.710938 414.089844 C 480.773438 402.945312 480.738281 391.796875 480.738281 379.777344 Z M 480.738281 379.777344 " fill-opacity="1" fill-rule="nonzero"/><path fill="#ab6437" d="M 357.5625 291.207031 C 357.5625 304.117188 357.507812 315.320312 357.597656 326.523438 C 357.625 329.679688 356.417969 330.960938 353.214844 330.878906 C 350.214844 330.800781 349.375 329.332031 349.394531 326.640625 C 349.453125 318.554688 349.46875 310.46875 349.375 302.386719 C 349.316406 297.25 353.464844 295.402344 357.5625 291.207031 Z M 357.5625 291.207031 " fill-opacity="1" fill-rule="nonzero"/><path fill="#a66437" d="M 371.238281 391.84375 C 374.324219 391.835938 377.410156 391.824219 380.496094 391.816406 C 380.542969 399.179688 380.445312 406.546875 380.699219 413.90625 C 380.832031 417.800781 379.203125 418.875 375.542969 418.867188 C 371.867188 418.855469 370.984375 417.1875 371.058594 413.933594 C 371.226562 406.574219 371.191406 399.207031 371.238281 391.84375 Z M 371.238281 391.84375 " fill-opacity="1" fill-rule="nonzero"/><path fill="#a96437" d="M 360.410156 391.875 C 363.476562 391.871094 366.542969 391.867188 369.609375 391.863281 C 369.652344 399.289062 369.582031 406.71875 369.792969 414.136719 C 369.894531 417.707031 368.40625 418.824219 364.996094 418.835938 C 361.566406 418.851562 360.101562 417.703125 360.203125 414.144531 C 360.414062 406.726562 360.355469 399.300781 360.410156 391.875 Z M 360.410156 391.875 " fill-opacity="1" fill-rule="nonzero"/><path fill="#a86337" d="M 395.566406 391.851562 C 397.800781 391.792969 400.035156 391.738281 402.269531 391.679688 C 405.136719 399.6875 403.066406 407.945312 403.4375 416.078125 C 403.570312 418.953125 400.9375 418.71875 398.953125 418.714844 C 397.011719 418.714844 394.230469 419.152344 394.304688 416.324219 C 394.519531 408.164062 392.527344 399.867188 395.566406 391.851562 Z M 395.566406 391.851562 " fill-opacity="1" fill-rule="nonzero"/><path fill="#a86437" d="M 383.328125 405.457031 C 383.328125 402.527344 383.382812 399.597656 383.3125 396.667969 C 383.238281 393.574219 385.035156 392.945312 387.660156 392.984375 C 390.128906 393.019531 391.457031 393.941406 391.445312 396.554688 C 391.414062 402.636719 391.398438 408.71875 391.496094 414.800781 C 391.542969 417.695312 390.257812 418.785156 387.425781 418.785156 C 384.667969 418.789062 383.167969 417.878906 383.246094 414.914062 C 383.332031 411.761719 383.265625 408.609375 383.265625 405.453125 C 383.285156 405.457031 383.304688 405.457031 383.328125 405.457031 Z M 383.328125 405.457031 " fill-opacity="1" fill-rule="nonzero"/><path fill="#b1693d" d="M 491.59375 390.332031 C 498.628906 396.21875 502.386719 410.714844 499.558594 416.945312 C 498.550781 419.164062 496.707031 418.695312 494.992188 418.742188 C 492.335938 418.820312 491.570312 417.234375 491.582031 414.867188 C 491.617188 407.09375 491.59375 399.324219 491.59375 390.332031 Z M 491.59375 390.332031 " fill-opacity="1" fill-rule="nonzero"/><path fill="#ab6436" d="M 261.359375 392.4375 C 261.359375 400.050781 261.324219 407.007812 261.378906 413.960938 C 261.402344 416.695312 261.113281 418.75 257.511719 418.824219 C 253.621094 418.902344 253.0625 416.78125 253.203125 413.699219 C 253.550781 405.988281 250.761719 397.191406 261.359375 392.4375 Z M 261.359375 392.4375 " fill-opacity="1" fill-rule="nonzero"/><path fill="#a55e33" d="M 502.480469 401.933594 C 509.457031 404.625 510.535156 410.734375 512.847656 415.792969 C 513.917969 418.128906 511.664062 418.960938 509.730469 418.707031 C 507.027344 418.355469 502.808594 420.636719 502.527344 415.367188 C 502.300781 411.128906 502.480469 406.871094 502.480469 401.933594 Z M 502.480469 401.933594 " fill-opacity="1" fill-rule="nonzero"/><path fill="#c27f50" d="M 248.164062 469.035156 C 248.023438 460.367188 247.882812 451.699219 247.742188 443.03125 C 247.828125 442.097656 247.910156 441.167969 247.996094 440.238281 C 249.816406 441.886719 252.074219 441.769531 254.296875 441.800781 C 257.058594 441.839844 257.460938 443.660156 257.445312 445.875 C 257.429688 448.023438 257.210938 450.171875 254.382812 449.914062 C 248.5 449.375 248.800781 453.144531 248.8125 457.148438 C 248.824219 461.109375 249.566406 465.144531 248.164062 469.035156 Z M 248.164062 469.035156 " fill-opacity="1" fill-rule="nonzero"/><path fill="#5e3a22" d="M 435.234375 495.851562 C 435.234375 485.277344 435.390625 474.695312 435.152344 464.121094 C 435.066406 460.296875 436.210938 459.070312 440.082031 459.144531 C 453.820312 459.402344 467.570312 459.445312 481.3125 459.335938 C 485.023438 459.304688 486.398438 460.289062 486.363281 464.25 C 486.175781 485.855469 486.1875 507.460938 486.324219 529.066406 C 486.347656 532.671875 485.140625 533.695312 481.65625 533.65625 C 467.6875 533.488281 453.714844 533.425781 439.75 533.621094 C 435.515625 533.679688 435.050781 531.734375 435.105469 528.257812 C 435.273438 517.460938 435.167969 506.65625 435.167969 495.851562 C 435.1875 495.851562 435.210938 495.851562 435.234375 495.851562 Z M 435.234375 495.851562 " fill-opacity="1" fill-rule="nonzero"/><path fill="#bc7341" d="M 482.183594 564.851562 C 484.207031 564.851562 486.226562 564.90625 488.25 564.835938 C 490.632812 564.757812 492.890625 564.695312 492.738281 568.101562 C 492.597656 571.164062 492.453125 574.085938 488.167969 573.988281 C 483.679688 573.882812 479.183594 573.835938 474.691406 573.949219 C 471.066406 574.042969 470.164062 572.1875 470.117188 568.925781 C 470.070312 565.425781 471.890625 564.804688 474.773438 564.9375 C 477.238281 565.054688 479.714844 564.960938 482.183594 564.960938 C 482.183594 564.921875 482.183594 564.886719 482.183594 564.851562 Z M 482.183594 564.851562 " fill-opacity="1" fill-rule="nonzero"/><path fill="#ba703f" d="M 491.527344 553.902344 C 494.996094 555.527344 502.355469 550.941406 500.871094 559.351562 C 499.449219 567.410156 492.558594 562.085938 488.253906 562.890625 C 485.277344 563.449219 481.003906 563.292969 481.867188 557.855469 C 482.972656 550.882812 488.582031 555.972656 491.527344 553.902344 Z M 491.527344 553.902344 " fill-opacity="1" fill-rule="nonzero"/><path fill="#b96c3a" d="M 473.257812 449.96875 C 471 449.96875 468.742188 449.925781 466.488281 449.980469 C 463.644531 450.046875 463.195312 448.328125 463.273438 446.015625 C 463.351562 443.820312 463.605469 441.917969 466.460938 441.882812 C 470.519531 441.835938 474.582031 441.761719 478.644531 441.667969 C 481.324219 441.605469 483.53125 441.785156 483.609375 445.453125 C 483.6875 449.128906 482.003906 450.246094 478.671875 450.015625 C 476.875 449.890625 475.0625 449.992188 473.257812 449.992188 C 473.257812 449.984375 473.257812 449.976562 473.257812 449.96875 Z M 473.257812 449.96875 " fill-opacity="1" fill-rule="nonzero"/><path fill="#b46937" d="M 494.957031 449.910156 C 492.640625 449.910156 490.855469 449.945312 489.074219 449.898438 C 487.589844 449.859375 486.402344 449.253906 486.363281 447.605469 C 486.320312 445.671875 485.523438 442.824219 487.78125 442.253906 C 492.289062 441.113281 497.136719 440.992188 501.597656 442.339844 C 503.648438 442.953125 503.132812 446.089844 502.535156 447.773438 C 501.019531 452.035156 497.058594 448.808594 494.957031 449.910156 Z M 494.957031 449.910156 " fill-opacity="1" fill-rule="nonzero"/><path fill="#643d24" d="M 265.804688 495.855469 C 265.804688 485.269531 265.933594 474.679688 265.734375 464.097656 C 265.667969 460.644531 266.539062 459.308594 270.21875 459.355469 C 284.195312 459.542969 298.179688 459.535156 312.160156 459.394531 C 315.636719 459.359375 316.886719 460.371094 316.863281 463.980469 C 316.726562 485.605469 316.710938 507.230469 316.886719 528.851562 C 316.921875 532.839844 315.496094 533.757812 311.796875 533.699219 C 298.269531 533.484375 284.734375 533.414062 271.207031 533.597656 C 267.125 533.652344 265.714844 532.550781 265.835938 528.289062 C 266.136719 517.484375 265.933594 506.667969 265.933594 495.855469 C 265.890625 495.855469 265.847656 495.855469 265.804688 495.855469 Z M 265.804688 495.855469 " fill-opacity="1" fill-rule="nonzero"/><path fill="#bb7443" d="M 274.480469 563.234375 C 272.234375 563.234375 269.984375 563.167969 267.742188 563.25 C 263.949219 563.390625 264.242188 560.816406 264.152344 558.253906 C 264.050781 555.421875 265.136719 554.128906 268.050781 554.21875 C 271.644531 554.328125 275.242188 554.335938 278.832031 554.203125 C 282.335938 554.074219 284.820312 554.359375 284.796875 559.0625 C 284.773438 564.117188 281.710938 563.59375 278.523438 563.523438 C 277.175781 563.496094 275.828125 563.519531 274.476562 563.519531 C 274.480469 563.425781 274.480469 563.328125 274.480469 563.234375 Z M 274.480469 563.234375 " fill-opacity="1" fill-rule="nonzero"/><path fill="#b96a37" d="M 289.253906 564.816406 C 291.730469 564.816406 294.210938 564.917969 296.679688 564.789062 C 299.425781 564.644531 300.855469 565.460938 300.757812 568.546875 C 300.667969 571.410156 300.195312 573.257812 296.683594 573.152344 C 291.738281 573.003906 286.777344 573.105469 281.832031 573.34375 C 278.625 573.496094 277.496094 572.285156 277.449219 569.097656 C 277.402344 565.824219 278.703125 564.644531 281.828125 564.8125 C 284.296875 564.941406 286.777344 564.835938 289.253906 564.835938 C 289.253906 564.832031 289.253906 564.824219 289.253906 564.816406 Z M 289.253906 564.816406 " fill-opacity="1" fill-rule="nonzero"/><path fill="#b36736" d="M 296.324219 448.28125 C 298.796875 448.28125 301.273438 448.371094 303.738281 448.257812 C 306.910156 448.113281 307.355469 449.957031 307.351562 452.535156 C 307.351562 455.164062 306.746094 456.855469 303.648438 456.78125 C 298.707031 456.664062 293.757812 456.609375 288.816406 456.734375 C 285.332031 456.820312 284.835938 454.824219 284.734375 452.015625 C 284.617188 448.886719 286.25 448.210938 288.910156 448.328125 C 291.378906 448.4375 293.851562 448.351562 296.324219 448.351562 C 296.324219 448.328125 296.324219 448.304688 296.324219 448.28125 Z M 296.324219 448.28125 " fill-opacity="1" fill-rule="nonzero"/><path fill="#b66a38" d="M 307.21875 445.960938 C 304.753906 445.960938 302.289062 445.980469 299.824219 445.953125 C 296.976562 445.921875 296.761719 443.960938 296.761719 441.789062 C 296.761719 439.574219 297.089844 437.738281 299.9375 437.746094 C 304.421875 437.757812 308.914062 437.84375 313.390625 437.632812 C 317.285156 437.449219 317.71875 439.902344 317.855469 442.789062 C 318.019531 446.277344 315.519531 445.972656 313.273438 446 C 311.253906 446.023438 309.238281 446.007812 307.21875 446.007812 C 307.21875 445.992188 307.21875 445.976562 307.21875 445.960938 Z M 307.21875 445.960938 " fill-opacity="1" fill-rule="nonzero"/><path fill="#bb7040" d="M 268.835938 450.078125 C 266.804688 450.078125 264.773438 450.035156 262.746094 450.089844 C 260.34375 450.15625 258.601562 449.355469 258.996094 446.664062 C 259.3125 444.523438 259.542969 441.917969 262.621094 441.824219 C 266.902344 441.6875 271.191406 441.835938 275.472656 441.660156 C 278.546875 441.535156 279.289062 443.070312 279.289062 445.78125 C 279.285156 448.414062 278.722656 450.179688 275.601562 450.035156 C 273.347656 449.933594 271.089844 450.015625 268.835938 450.015625 C 268.835938 450.035156 268.835938 450.058594 268.835938 450.078125 Z M 268.835938 450.078125 " fill-opacity="1" fill-rule="nonzero"/><path fill="#f1be6e" d="M 394.78125 530.902344 C 392.863281 530.417969 391.566406 529.347656 391.621094 527.257812 C 391.671875 525.230469 392.867188 523.675781 394.816406 523.746094 C 396.710938 523.808594 397.929688 525.378906 397.980469 527.382812 C 398.039062 529.476562 396.765625 530.550781 394.78125 530.902344 Z M 394.78125 530.902344 " fill-opacity="1" fill-rule="nonzero"/><path fill="#7f5238" d="M 399.546875 361.546875 C 399.546875 368.085938 399.140625 374.65625 399.679688 381.148438 C 400.101562 386.238281 397.859375 388.195312 393.425781 388.472656 C 388.257812 388.796875 383.074219 388.941406 377.894531 388.929688 C 370.984375 388.90625 364.085938 387.953125 357.164062 388.90625 C 354.050781 389.335938 351.8125 388.492188 352.066406 384.640625 C 352.96875 370.902344 350.738281 357.257812 350.804688 343.535156 C 350.832031 337.300781 352.910156 334.328125 359.964844 334.714844 C 371.214844 335.332031 382.527344 335.035156 393.804688 334.773438 C 398.257812 334.671875 399.785156 336.164062 399.597656 340.585938 C 399.300781 347.5625 399.519531 354.558594 399.519531 361.546875 C 399.527344 361.546875 399.539062 361.546875 399.546875 361.546875 Z M 399.546875 361.546875 " fill-opacity="1" fill-rule="nonzero"/><path fill="#895b42" d="M 438.800781 495.597656 C 438.800781 486.359375 438.96875 477.121094 438.722656 467.886719 C 438.609375 463.636719 439.738281 461.816406 444.367188 461.949219 C 455.1875 462.261719 466.023438 462.253906 476.847656 462.058594 C 480.992188 461.980469 481.949219 463.496094 482.359375 467.488281 C 484.269531 485.914062 482.910156 504.371094 483.542969 522.796875 C 483.714844 527.839844 482.667969 530.078125 476.9375 529.828125 C 466.128906 529.355469 455.285156 529.515625 444.460938 529.785156 C 439.992188 529.898438 438.5625 528.398438 438.691406 523.984375 C 438.96875 514.53125 438.777344 505.0625 438.777344 495.597656 C 438.78125 495.597656 438.789062 495.597656 438.800781 495.597656 Z M 438.800781 495.597656 " fill-opacity="1" fill-rule="nonzero"/><path fill="#85553a" d="M 269.125 494.546875 C 269.125 484.886719 269.382812 475.21875 268.976562 465.574219 C 268.847656 462.574219 269.699219 462.046875 272.125 462.050781 C 284.738281 462.074219 297.347656 462.140625 309.957031 462.042969 C 313.28125 462.019531 314.183594 463.546875 314.175781 466.566406 C 314.125 486.132812 314.105469 505.699219 314.230469 525.265625 C 314.265625 530.742188 310.164062 530.816406 306.828125 530.816406 C 298.613281 530.8125 290.375 530.402344 282.1875 529.707031 C 278.089844 529.359375 272.503906 531.984375 270.234375 528.035156 C 268.363281 524.78125 269.566406 519.722656 269.53125 515.464844 C 269.472656 508.492188 269.515625 501.519531 269.515625 494.546875 C 269.386719 494.546875 269.257812 494.546875 269.125 494.546875 Z M 269.125 494.546875 " fill-opacity="1" fill-rule="nonzero"/><path fill="#2f2a2c" d="M 395.566406 373.890625 C 395.566406 375.964844 395.421875 377.558594 395.59375 379.113281 C 396.066406 383.363281 394.582031 385.179688 389.988281 385.035156 C 375.191406 384.574219 378.070312 386.417969 377.859375 372.84375 C 377.8125 369.851562 376.195312 365.371094 379.226562 364.09375 C 383.6875 362.21875 389.390625 362.117188 393.738281 363.9375 C 397.75 365.621094 394.6875 370.855469 395.566406 373.890625 Z M 395.566406 373.890625 " fill-opacity="1" fill-rule="nonzero"/><path fill="#302e34" d="M 377.832031 348.59375 C 377.828125 337.355469 381.957031 334.808594 393.050781 338.914062 C 395.34375 339.765625 395.4375 341.273438 395.460938 343.09375 C 395.496094 346.015625 395.167969 348.980469 395.5625 351.851562 C 396.390625 357.886719 394.003906 359.632812 388.054688 359.328125 C 376.480469 358.730469 377.980469 360.679688 377.832031 348.59375 Z M 377.832031 348.59375 " fill-opacity="1" fill-rule="nonzero"/><path fill="#322d35" d="M 372.507812 374.535156 C 372.507812 376.335938 372.371094 378.144531 372.535156 379.929688 C 372.894531 383.800781 371.109375 385.21875 367.394531 384.941406 C 365.15625 384.777344 362.890625 384.949219 360.640625 384.914062 C 359.746094 384.902344 358.464844 385.082031 358.027344 384.585938 C 354.140625 380.179688 356.8125 374.832031 356.179688 369.9375 C 355.878906 367.589844 355.53125 364.339844 358.761719 363.816406 C 362.488281 363.210938 366.378906 363.449219 370.1875 363.585938 C 372.253906 363.660156 372.402344 365.496094 372.425781 367.113281 C 372.460938 369.585938 372.433594 372.0625 372.433594 374.535156 C 372.460938 374.535156 372.484375 374.535156 372.507812 374.535156 Z M 372.507812 374.535156 " fill-opacity="1" fill-rule="nonzero"/><path fill="#333139" d="M 372.535156 350.132812 C 371.742188 352.675781 374.5 357.335938 370.691406 358.648438 C 366.898438 359.953125 362.316406 359.101562 358.089844 358.945312 C 356.425781 358.886719 356.207031 357.242188 356.195312 355.882812 C 356.160156 351.640625 356.070312 347.441406 355.109375 343.25 C 354.40625 340.183594 356.039062 338.640625 359.234375 338.875 C 359.902344 338.921875 360.578125 338.882812 361.25 338.871094 C 372.464844 338.6875 372.464844 338.6875 372.535156 350.132812 Z M 372.535156 350.132812 " fill-opacity="1" fill-rule="nonzero"/><path fill="#2e2a2d" d="M 441.554688 515.363281 C 440.796875 511.007812 441.378906 507.472656 448.65625 507.9375 C 460.390625 508.691406 458.867188 507.152344 459.066406 517.257812 C 459.167969 522.667969 460.429688 528.042969 451.28125 527.21875 C 440.101562 526.214844 441.78125 527.84375 441.554688 515.363281 Z M 441.554688 515.363281 " fill-opacity="1" fill-rule="nonzero"/><path fill="#2e2a2a" d="M 479.578125 516.128906 C 479.554688 527.035156 479.554688 527.035156 469.75 527.03125 C 461.953125 527.027344 461.953125 527.027344 461.976562 516.617188 C 461.996094 508.089844 462.035156 508.640625 471.964844 507.921875 C 480.007812 507.34375 480.355469 511.484375 479.578125 516.128906 Z M 479.578125 516.128906 " fill-opacity="1" fill-rule="nonzero"/><path fill="#312d2e" d="M 479.453125 474.410156 C 479.460938 482.875 473.359375 486.6875 465.183594 483.449219 C 463.589844 482.816406 463.277344 481.738281 463.191406 480.371094 C 463.078125 478.578125 463.164062 476.769531 462.957031 474.992188 C 461.789062 464.859375 461.765625 464.863281 471.664062 464.792969 C 479.441406 464.738281 479.441406 464.738281 479.453125 474.410156 Z M 479.453125 474.410156 " fill-opacity="1" fill-rule="nonzero"/><path fill="#2e292b" d="M 441.605469 474.792969 C 441.621094 465.625 442.59375 465.105469 453.492188 464.726562 C 458.925781 464.539062 459.125 467.226562 459.039062 471.308594 C 458.777344 483.371094 458.558594 483.175781 448.152344 483.796875 C 440.164062 484.277344 441.511719 479.429688 441.605469 474.792969 Z M 441.605469 474.792969 " fill-opacity="1" fill-rule="nonzero"/><path fill="#323035" d="M 441.796875 496.171875 C 440.5625 490.335938 442.003906 486.539062 449.574219 487.609375 C 453.988281 488.230469 459.4375 486.089844 459.039062 494.128906 C 458.539062 504.078125 457.734375 504.71875 448.476562 505.386719 C 440.769531 505.941406 441.316406 501.527344 441.796875 496.171875 Z M 441.796875 496.171875 " fill-opacity="1" fill-rule="nonzero"/><path fill="#353335" d="M 463.148438 495.242188 C 462.148438 490.382812 463.375 486.984375 470.683594 487.539062 C 476.015625 487.941406 480.164062 487.308594 479.617188 495.054688 C 478.90625 505.15625 479.472656 505.195312 471.753906 505.222656 C 463.183594 505.25 463.183594 505.25 463.148438 495.242188 Z M 463.148438 495.242188 " fill-opacity="1" fill-rule="nonzero"/><path fill="#30282e" d="M 272.300781 517.367188 C 272.503906 512.835938 270.375 507.375 278.96875 507.921875 C 289.628906 508.597656 289.867188 508.03125 289.640625 516.472656 C 289.515625 521.105469 292.515625 527.722656 282.828125 527.082031 C 270.867188 526.292969 272.578125 528.078125 272.300781 517.367188 Z M 272.300781 517.367188 " fill-opacity="1" fill-rule="nonzero"/><path fill="#302d34" d="M 310.160156 516.003906 C 310.144531 526.953125 310.144531 526.953125 301.359375 526.953125 C 292.621094 526.949219 292.621094 526.949219 292.652344 516.433594 C 292.675781 508.03125 292.71875 508.628906 302.847656 507.886719 C 311.453125 507.257812 310.367188 512.375 310.160156 516.003906 Z M 310.160156 516.003906 " fill-opacity="1" fill-rule="nonzero"/><path fill="#39353b" d="M 310.175781 476.023438 C 311.3125 481.269531 309.640625 484.476562 302.214844 483.890625 C 293.835938 483.226562 294.175781 483.71875 293.703125 472.679688 C 293.417969 466.027344 296.535156 464.65625 302.117188 464.789062 C 309.707031 464.96875 310.195312 465.441406 310.175781 476.023438 Z M 310.175781 476.023438 " fill-opacity="1" fill-rule="nonzero"/><path fill="#36323a" d="M 272.273438 495.238281 C 271.25 490.378906 272.546875 487.21875 279.789062 487.613281 C 291.332031 488.238281 287.582031 487.609375 289.015625 499.09375 C 289.878906 505.992188 284.648438 505.324219 280.09375 505.277344 C 272.289062 505.195312 272.289062 505.269531 272.273438 495.238281 Z M 272.273438 495.238281 " fill-opacity="1" fill-rule="nonzero"/><path fill="#2f2932" d="M 288.566406 475.410156 C 288.554688 483.714844 288.527344 483.285156 279.390625 483.867188 C 273.050781 484.269531 271.84375 481.796875 272.097656 476.144531 C 272.550781 466.082031 272.300781 466.636719 281.804688 465.917969 C 290.417969 465.265625 288.429688 470.777344 288.566406 475.410156 Z M 288.566406 475.410156 " fill-opacity="1" fill-rule="nonzero"/><path fill="#363136" d="M 310.191406 498.125 C 311.675781 503.757812 308.835938 505.496094 302.335938 505.558594 C 295.746094 505.621094 292.734375 504.15625 293.710938 497.039062 C 294.34375 492.441406 292.089844 486.914062 300.601562 487.570312 C 309.523438 488.257812 310.179688 488.3125 310.191406 498.125 Z M 310.191406 498.125 " fill-opacity="1" fill-rule="nonzero"/></svg>