<svg xmlns="http://www.w3.org/2000/svg" xmlns:xlink="http://www.w3.org/1999/xlink" width="1000" zoomAndPan="magnify" viewBox="0 0 750 749.999995" height="1000" preserveAspectRatio="xMidYMid meet" version="1.0"><defs><clipPath id="0d558166c3"><path d="M 69.140625 37.5 L 681 37.5 L 681 712.5 L 69.140625 712.5 Z M 69.140625 37.5 " clip-rule="nonzero"/></clipPath></defs><g clip-path="url(#0d558166c3)"><path fill="#020202" d="M 650.808594 541.027344 C 663.9375 546.976562 675.285156 553.648438 676.507812 569.382812 C 677.640625 583.726562 672.800781 595.050781 659.597656 602.742188 C 662.582031 604.597656 665.160156 606.023438 667.589844 607.710938 C 683.238281 618.535156 685.558594 642.238281 672.300781 655.898438 C 664.234375 664.257812 653.867188 668.742188 643.1875 672.46875 C 619.507812 680.734375 594.886719 684.496094 570.132812 687.480469 C 521.03125 693.390625 471.707031 694.707031 422.3125 693.503906 C 419.714844 693.503906 418.046875 693.09375 418.9375 696.949219 C 419.996094 701.507812 416.546875 703.992188 412.835938 705.660156 C 405.199219 709.089844 396.945312 709.980469 388.730469 710.757812 C 360.917969 713.390625 333.105469 712.445312 305.402344 711.296875 C 290.4375 710.683594 275.4375 710.070312 260.714844 706.882812 C 256.390625 706.0625 252.28125 704.628906 248.386719 702.585938 C 240.96875 698.453125 240.488281 692.871094 247.199219 687.757812 C 247.699219 687.367188 248.179688 686.960938 249.535156 685.902344 C 235.003906 686.644531 220.480469 686.527344 205.960938 685.550781 C 187.417969 684.441406 168.96875 683.160156 150.925781 678.582031 C 147.8125 677.832031 144.828125 676.730469 141.972656 675.285156 C 134.554688 671.375 134.3125 664.644531 141.285156 659.863281 C 145.269531 657.285156 149.558594 655.398438 154.152344 654.210938 C 169.671875 649.707031 185.675781 648.890625 201.660156 648.519531 C 208.722656 648.375 215.808594 648.316406 222.871094 648.375 C 225.914062 648.375 226.765625 647.445312 225.597656 644.519531 C 224.132812 640.511719 223.515625 636.378906 223.742188 632.117188 C 223.707031 630.835938 223.757812 629.554688 223.902344 628.277344 C 224.046875 627 224.277344 625.738281 224.597656 624.496094 C 224.917969 623.25 225.324219 622.035156 225.816406 620.847656 C 226.308594 619.660156 226.882812 618.515625 227.535156 617.40625 C 228.1875 616.300781 228.914062 615.246094 229.714844 614.238281 C 230.515625 613.234375 231.382812 612.292969 232.316406 611.410156 C 233.25 610.527344 234.242188 609.710938 235.292969 608.96875 C 236.339844 608.226562 237.433594 607.558594 238.578125 606.96875 C 240.300781 606.003906 242.0625 605.117188 244.472656 603.855469 L 239.410156 600.148438 C 227.859375 591.660156 223.335938 580.296875 225.503906 566.175781 C 225.757812 564.457031 226.179688 562.78125 226.777344 561.152344 C 227.375 559.523438 228.132812 557.96875 229.050781 556.492188 C 229.964844 555.019531 231.023438 553.652344 232.222656 552.398438 C 233.421875 551.140625 234.734375 550.019531 236.167969 549.03125 C 239.414062 546.609375 242.914062 544.625 246.660156 543.082031 C 250.574219 541.488281 249.460938 539.671875 247.070312 537.761719 C 246.085938 537.113281 245.066406 536.527344 244.007812 536.003906 C 243.453125 535.683594 242.910156 535.347656 242.375 534.992188 C 241.839844 534.636719 241.316406 534.265625 240.808594 533.878906 C 240.296875 533.488281 239.800781 533.085938 239.316406 532.667969 C 238.832031 532.246094 238.359375 531.8125 237.902344 531.363281 C 237.445312 530.910156 237.003906 530.449219 236.578125 529.96875 C 236.148438 529.492188 235.738281 529 235.34375 528.496094 C 234.949219 527.992188 234.570312 527.472656 234.207031 526.945312 C 233.84375 526.417969 233.5 525.878906 233.171875 525.328125 C 232.84375 524.777344 232.53125 524.214844 232.242188 523.644531 C 231.949219 523.074219 231.675781 522.492188 231.417969 521.90625 C 231.164062 521.316406 230.929688 520.722656 230.710938 520.117188 C 230.496094 519.515625 230.296875 518.90625 230.121094 518.289062 C 229.941406 517.675781 229.785156 517.054688 229.648438 516.425781 C 229.507812 515.800781 229.390625 515.171875 229.292969 514.539062 C 229.195312 513.90625 229.117188 513.269531 229.0625 512.628906 C 229.003906 511.992188 228.96875 511.351562 228.953125 510.710938 C 228.9375 510.070312 228.941406 509.429688 228.964844 508.789062 C 228.992188 508.148438 229.035156 507.511719 229.101562 506.871094 C 229.167969 506.234375 229.253906 505.601562 229.359375 504.96875 C 229.46875 504.335938 229.59375 503.707031 229.742188 503.082031 C 229.886719 502.460938 230.054688 501.839844 230.242188 501.226562 C 230.425781 500.613281 230.632812 500.007812 230.859375 499.40625 C 231.085938 498.808594 231.328125 498.214844 231.589844 497.632812 C 231.855469 497.046875 232.136719 496.472656 232.4375 495.90625 C 232.738281 495.339844 233.054688 494.78125 233.390625 494.234375 C 233.726562 493.691406 234.078125 493.15625 234.449219 492.632812 C 234.820312 492.109375 235.203125 491.597656 235.609375 491.097656 C 236.011719 490.597656 236.429688 490.113281 236.863281 489.640625 C 237.296875 489.167969 237.746094 488.710938 238.207031 488.269531 C 238.671875 487.824219 239.148438 487.394531 239.636719 486.984375 C 240.128906 486.570312 240.632812 486.171875 241.148438 485.792969 C 241.664062 485.414062 242.191406 485.046875 242.730469 484.703125 C 254.113281 477.085938 267.335938 474.042969 280.242188 470.335938 C 313.226562 460.867188 346.269531 451.582031 380.164062 445.890625 C 393.109375 443.683594 406.140625 442.230469 419.253906 441.535156 C 422.570312 441.351562 423.777344 440.40625 424.242188 437.015625 C 428.578125 404.003906 428.785156 370.886719 427.484375 337.710938 C 427.027344 321.03125 425.292969 304.488281 422.273438 288.078125 C 420.484375 279.8125 417.46875 272.023438 413.226562 264.707031 C 411.816406 262.148438 410.445312 262 408.035156 262.648438 C 395.574219 266.039062 386.414062 273.917969 378.792969 283.925781 C 371.171875 293.933594 366.128906 305.292969 361.195312 316.730469 C 350.421875 341.675781 336.871094 364.695312 316.007812 382.785156 C 291.792969 403.800781 263.125 415.050781 232.105469 421.113281 C 221.820312 423.179688 211.429688 424.207031 200.9375 424.1875 C 199.84375 424.140625 198.804688 424.355469 197.820312 424.828125 C 196.835938 425.300781 196.019531 425.976562 195.375 426.859375 C 189.441406 433.660156 182.503906 434.902344 174.550781 430.675781 C 166.597656 426.160156 159.359375 420.699219 152.835938 414.292969 C 124.554688 388.351562 99.832031 359.375 78.667969 327.367188 C 75.632812 322.902344 73.078125 318.175781 71.011719 313.191406 C 67.429688 304.015625 69.378906 296.972656 77.574219 291.820312 C 80.335938 290.078125 80.6875 287.742188 81.28125 285.128906 C 86.34375 258.253906 95.023438 232.679688 111.0625 210.308594 C 115.917969 203.5625 116.863281 197.707031 115.398438 189.738281 C 105.554688 135.988281 133.273438 76.679688 180.78125 49.972656 C 206.738281 35.332031 233.605469 32.476562 260.640625 47.378906 C 275.179688 55.386719 284.859375 67.949219 291.625 82.890625 C 292.3125 84.410156 292.941406 85.949219 293.8125 87.949219 C 297.761719 82.890625 301.378906 78.164062 305.105469 73.511719 C 309.242188 68.378906 312.320312 67.542969 318.308594 70.398438 C 321.515625 71.902344 324.507812 73.753906 327.28125 75.957031 C 373.195312 113.246094 412.929688 156.117188 444.285156 206.566406 C 449.242188 214.222656 453.148438 222.382812 456 231.046875 C 458.847656 239.710938 460.550781 248.59375 461.101562 257.699219 C 461.527344 266.449219 459.25 274.714844 457.226562 283.035156 C 447.957031 320.992188 446.363281 359.542969 447.863281 398.351562 C 448.375 411.320312 449.796875 424.191406 452.128906 436.957031 C 452.574219 439.332031 453.277344 440.40625 455.929688 440.441406 C 503.972656 441.074219 550.496094 450.671875 596.3125 464.40625 C 610.980469 468.800781 625.886719 472.375 640.296875 477.621094 C 644.542969 479.160156 648.65625 481.144531 652.792969 482.996094 C 676.15625 493.542969 675.601562 525.421875 656.074219 537.484375 C 654.5 538.449219 653.015625 539.542969 650.808594 541.027344 Z M 650.808594 541.027344 " fill-opacity="1" fill-rule="nonzero"/></g><path fill="#f2eddc" d="M 408.851562 255.199219 C 389.789062 259.996094 377.011719 272.507812 367.335938 288.875 C 360.546875 300.328125 355.484375 312.617188 350.015625 324.679688 C 327.003906 375.390625 286.675781 403.300781 233.070312 413.941406 C 221.640625 416.195312 210.101562 417.429688 198.449219 417.644531 C 197.746094 417.613281 197.046875 417.675781 196.359375 417.828125 C 195.667969 417.980469 195.011719 418.21875 194.386719 418.542969 C 193.757812 418.871094 193.183594 419.269531 192.664062 419.746094 C 192.144531 420.222656 191.691406 420.757812 191.3125 421.351562 C 187.175781 427.023438 183.042969 427.839844 176.921875 424.335938 C 168.820312 419.398438 161.402344 413.585938 154.671875 406.898438 C 127.648438 381.804688 104.066406 353.8125 83.933594 322.921875 C 81.132812 318.882812 78.882812 314.558594 77.183594 309.945312 C 75.109375 303.738281 76.386719 299.902344 82.265625 296.972656 C 82.980469 296.636719 83.640625 296.214844 84.242188 295.703125 C 84.847656 295.191406 85.371094 294.613281 85.816406 293.960938 C 86.265625 293.308594 86.617188 292.609375 86.878906 291.863281 C 87.136719 291.113281 87.292969 290.347656 87.34375 289.558594 C 92.742188 258.832031 103.164062 230.25 122.855469 205.488281 C 125.078125 202.710938 124.355469 200.28125 123.652344 197.503906 C 110.226562 143.882812 135.59375 83.613281 183.617188 56.035156 C 204.273438 44.152344 226.265625 40.222656 249.015625 49.378906 C 269.28125 57.496094 281.410156 73.269531 288.417969 93.417969 C 289.105469 95.4375 289.105469 97.976562 291.867188 98.457031 C 294.628906 98.941406 295.574219 96.605469 296.890625 94.917969 C 300.398438 90.488281 303.863281 86.019531 307.351562 81.535156 C 336.5 132.132812 377.347656 171.980469 420.457031 209.753906 C 430.265625 218.351562 439.425781 227.398438 445.210938 239.296875 C 445.210938 240.628906 444.320312 240.722656 443.359375 240.777344 C 430.210938 234.160156 416.191406 230.011719 402.0625 226.246094 C 381.460938 221.023438 360.570312 217.527344 339.390625 215.757812 C 288.53125 210.828125 237.5 213.367188 186.546875 212.738281 C 183.507812 212.988281 180.503906 212.765625 177.535156 212.070312 C 174.902344 210.753906 176.273438 209.457031 177.722656 208.363281 C 181.523438 205.582031 185.285156 202.804688 189.253906 200.191406 C 203.410156 191.347656 218.035156 183.359375 233.125 176.226562 C 235.332031 175.148438 239.484375 174.371094 238.058594 171.238281 C 236.945312 168.847656 233.476562 171.128906 231.253906 172 C 221.683594 175.707031 211.875 178.820312 202.253906 182.398438 C 193.996094 185.375 186.105469 189.121094 178.574219 193.632812 C 171.046875 198.144531 164.027344 203.339844 157.507812 209.214844 C 156.617188 210.269531 155.515625 211.023438 154.210938 211.476562 C 147.8125 211.476562 141.414062 211.476562 135.019531 211.367188 C 134.179688 211.308594 133.347656 211.367188 132.523438 211.539062 C 131.699219 211.710938 130.914062 211.988281 130.164062 212.375 C 129.417969 212.761719 128.734375 213.238281 128.117188 213.808594 C 127.5 214.378906 126.96875 215.023438 126.527344 215.738281 C 117.800781 228.230469 110.878906 241.648438 105.757812 255.996094 C 101.550781 268.085938 98.078125 280.386719 95.335938 292.894531 C 94.699219 295.695312 94.554688 298.519531 94.90625 301.371094 C 95.261719 304.21875 96.089844 306.925781 97.394531 309.484375 C 101.789062 318.425781 107.003906 326.859375 113.046875 334.78125 C 125.992188 352.46875 140.207031 369.070312 155.691406 384.582031 C 161.03125 389.9375 167.171875 394.480469 172.546875 399.78125 C 180.742188 407.84375 190.328125 410.4375 201.566406 409.4375 C 231.605469 406.730469 260.402344 399.890625 286.710938 384.617188 C 308.703125 371.847656 324.871094 353.5 336.777344 331.222656 C 345.304688 315.359375 351.609375 298.382812 361.03125 283.035156 C 370.191406 268.042969 381.964844 255.882812 398.855469 249.542969 C 400.535156 248.707031 402.308594 248.207031 404.179688 248.042969 C 409.128906 249.65625 409.851562 250.785156 408.851562 255.199219 Z M 408.851562 255.199219 " fill-opacity="1" fill-rule="nonzero"/><path fill="#a64d1b" d="M 448.328125 447.246094 C 453.203125 456.511719 455.019531 457.550781 465.496094 455.863281 C 470.1875 455.121094 474.898438 455.34375 478.476562 458.457031 C 485.097656 464.257812 493.070312 464.757812 501.136719 465.390625 C 508.921875 465.742188 516.398438 467.441406 523.570312 470.484375 C 529.96875 473.46875 530.988281 475.304688 530.0625 482.070312 C 529.226562 487.628906 531.75 491.335938 536.085938 494.414062 C 543.503906 499.492188 551.832031 502.789062 559.488281 507.386719 C 564.402344 510.296875 569.519531 512.945312 573.320312 517.414062 C 576.75 521.398438 578.882812 525.808594 576.75 531.222656 C 572.894531 528.496094 568.683594 529.886719 564.625 530.277344 C 551.460938 531.519531 538.351562 533.074219 525.109375 533.128906 C 519.957031 528.089844 514.746094 523.101562 509.664062 517.988281 C 507.242188 515.417969 504.570312 513.140625 501.644531 511.152344 C 498.722656 509.167969 495.621094 507.523438 492.335938 506.21875 C 489.050781 504.914062 485.667969 503.980469 482.175781 503.417969 C 478.6875 502.855469 475.179688 502.675781 471.652344 502.882812 C 462.679688 503.355469 453.945312 502.117188 445.453125 499.175781 C 444.054688 498.648438 442.628906 498.210938 441.179688 497.859375 C 439.726562 497.507812 438.257812 497.25 436.773438 497.082031 C 435.289062 496.914062 433.800781 496.839844 432.304688 496.855469 C 430.8125 496.871094 429.324219 496.980469 427.84375 497.183594 C 426.363281 497.382812 424.902344 497.675781 423.457031 498.058594 C 422.011719 498.441406 420.597656 498.914062 419.214844 499.472656 C 417.828125 500.03125 416.480469 500.671875 415.175781 501.398438 C 413.871094 502.125 412.613281 502.929688 411.410156 503.808594 C 400.820312 511.222656 390.160156 518.636719 383.597656 530.238281 C 378.664062 533.464844 373.121094 532.242188 367.964844 531.8125 C 353.296875 530.589844 338.628906 529.21875 324.054688 527.070312 C 321.757812 526.734375 319.347656 526.511719 317.976562 524.179688 C 319.496094 517.746094 324.054688 513.519531 328.746094 509.351562 C 334.738281 504.144531 341.875 500.585938 348.292969 496.007812 C 352.109375 493.28125 356.839844 490.632812 355.113281 484.886719 C 353.558594 479.640625 348.589844 478.640625 343.785156 478.03125 C 338.710938 477.582031 333.730469 478.070312 328.839844 479.492188 C 312.785156 483.222656 297.15625 488.265625 281.945312 494.617188 C 273.25 498.433594 265.257812 503.457031 260.253906 511.910156 C 259.433594 512.113281 258.601562 512.203125 257.757812 512.167969 C 256.910156 512.136719 256.089844 511.988281 255.285156 511.71875 C 254.484375 511.453125 253.738281 511.078125 253.042969 510.59375 C 252.347656 510.113281 251.734375 509.542969 251.203125 508.886719 C 254.113281 501.085938 260.699219 496.839844 267.355469 492.949219 C 278.585938 486.699219 290.453125 482.082031 302.957031 479.105469 C 317.566406 475.269531 332.308594 472.003906 346.511719 466.648438 C 357.070312 462.851562 367.960938 461.035156 379.183594 461.199219 C 388.601562 461.199219 398.023438 460.8125 407.441406 460.570312 C 416.859375 460.328125 424.332031 456.492188 428.171875 447.300781 C 429.75 446.5625 431.386719 446.007812 433.085938 445.628906 C 434.785156 445.246094 436.503906 445.054688 438.242188 445.050781 C 439.984375 445.046875 441.703125 445.226562 443.40625 445.597656 C 445.105469 445.96875 446.746094 446.515625 448.328125 447.246094 Z M 448.328125 447.246094 " fill-opacity="1" fill-rule="nonzero"/><path fill="#f9dd99" d="M 672.652344 624.058594 C 676.824219 637.328125 673.171875 648.613281 661.804688 656.285156 C 647.601562 665.867188 631.359375 670.28125 614.835938 673.578125 C 550.4375 686.367188 485.300781 688.8125 419.882812 686.886719 C 403.34375 686.40625 387.507812 681.417969 371.285156 678.933594 C 363.496094 677.730469 360.863281 673.152344 360.160156 664.332031 C 359.574219 660.996094 359.652344 657.679688 360.398438 654.378906 C 361.933594 653.574219 363.558594 653.289062 365.277344 653.527344 C 378.757812 654.5625 392.253906 655.472656 405.792969 656.027344 C 410.699219 657.167969 415.644531 657.359375 420.625 656.601562 C 440.835938 656.429688 461.035156 656.429688 481.222656 656.601562 C 486.082031 657.339844 490.914062 657.195312 495.722656 656.15625 C 509.980469 655.414062 524.277344 654.859375 538.535156 653.671875 C 572.449219 650.839844 606.308594 647.519531 639.21875 638.214844 C 648.9375 635.457031 658.578125 632.339844 667.035156 626.464844 C 668.777344 625.707031 670.054688 623.445312 672.652344 624.058594 Z M 672.652344 624.058594 " fill-opacity="1" fill-rule="nonzero"/><path fill="#dc9349" d="M 583.851562 526.144531 C 582.8125 518.0625 578.289062 512.296875 571.761719 507.757812 C 563.046875 501.660156 553.460938 497.136719 544.136719 492.132812 C 538.574219 489.1875 534.308594 486.40625 536.71875 478.566406 C 538.257812 473.46875 534.195312 469.464844 529.894531 466.648438 C 522.164062 461.570312 513.300781 460.328125 504.417969 459.476562 C 495.886719 458.644531 487.5625 458.273438 480.3125 452.191406 C 475.289062 447.949219 468.539062 448.875 462.289062 449.859375 C 459.785156 450.246094 457.300781 450.820312 455.449219 447.542969 C 461.011719 447.542969 466.277344 447.300781 471.488281 447.542969 C 530.042969 450.5625 585.6875 466.945312 640.945312 484.886719 C 649.863281 487.777344 658.613281 491.800781 662.433594 501.660156 C 660.839844 505.644531 657.613281 507.925781 654 509.890625 C 642.871094 515.875 630.988281 519.15625 618.769531 521.9375 C 609.105469 524.121094 599.296875 525.640625 589.488281 526.902344 C 587.617188 527.21875 585.578125 527.71875 583.851562 526.144531 Z M 583.851562 526.144531 " fill-opacity="1" fill-rule="nonzero"/><path fill="#f9dd9a" d="M 544.359375 594.792969 C 546.730469 600.574219 545.507812 606.375 544.097656 612.066406 C 541.28125 623.464844 541.1875 623.628906 529.652344 624.5 C 475.648438 628.386719 421.660156 628.171875 367.6875 623.851562 C 363.144531 623.5 360.917969 622.425781 360.917969 617.21875 C 360.917969 610.710938 359.769531 604.246094 359.0625 597.664062 C 358.042969 593.03125 361.605469 593.070312 364.3125 593.070312 C 370.511719 593.113281 376.695312 593.492188 382.855469 594.199219 C 391.570312 595.105469 400.339844 595.421875 409.035156 595.609375 C 427.707031 596.015625 446.363281 597.777344 465.050781 596.867188 C 489.15625 595.699219 513.132812 595.609375 537.089844 593.160156 C 539.757812 592.976562 542.28125 592.828125 544.359375 594.792969 Z M 544.359375 594.792969 " fill-opacity="1" fill-rule="nonzero"/><path fill="#dc9348" d="M 544.359375 594.792969 C 520.585938 596.738281 496.777344 597.777344 472.953125 598.5 C 459.675781 599.132812 446.40625 599.015625 433.140625 598.148438 C 423.109375 597.351562 413.023438 597.8125 402.933594 597.183594 C 389.863281 596.347656 376.789062 595.699219 363.738281 594.753906 C 361.4375 594.589844 359.230469 594.421875 359.121094 597.644531 C 356.785156 584.949219 361.253906 574.980469 371.210938 567.101562 C 373.0625 565.621094 375.066406 566.195312 377.011719 566.34375 C 409.609375 568.734375 442.265625 569.917969 474.953125 569.34375 C 493.976562 569.011719 513.003906 568.585938 531.972656 566.84375 C 535.199219 566.546875 536.589844 567.085938 536.402344 570.660156 C 536.125 575.683594 538.40625 580.09375 540.519531 584.523438 C 542.113281 587.84375 544.414062 590.882812 544.359375 594.792969 Z M 544.359375 594.792969 " fill-opacity="1" fill-rule="nonzero"/><path fill="#fadf99" d="M 515.800781 533.054688 C 520.726562 537.402344 525.351562 542.046875 529.671875 546.992188 C 531.960938 549.695312 533.816406 552.664062 535.234375 555.90625 C 536.53125 558.910156 536.253906 560.335938 532.359375 560.558594 C 501.765625 562.414062 471.171875 563.636719 440.484375 562.894531 C 421.8125 562.449219 403.140625 561.542969 384.503906 560.28125 C 382.390625 560.414062 380.375 560.027344 378.460938 559.132812 C 385.191406 551.21875 385.636719 540.597656 390.382812 531.90625 C 395.609375 528.996094 401.210938 530.367188 406.699219 530.574219 C 434.050781 531.664062 461.363281 533.242188 488.769531 531.574219 C 497.796875 531.015625 506.976562 529.703125 515.800781 533.054688 Z M 515.800781 533.054688 " fill-opacity="1" fill-rule="nonzero"/><path fill="#dc9246" d="M 361.402344 646.296875 C 361.851562 642.292969 362.097656 638.277344 362.140625 634.25 C 362.011719 630.542969 363.3125 629.746094 366.796875 630.097656 C 383.875 631.824219 401.027344 632.601562 418.175781 633.027344 C 457.894531 634.046875 497.59375 633.972656 537.21875 630.339844 C 539.59375 630.117188 541.335938 630.210938 542.113281 633.0625 C 542.464844 634.285156 542.960938 635.441406 543.609375 636.535156 C 544.257812 637.628906 545.03125 638.621094 545.933594 639.515625 C 546.835938 640.410156 547.835938 641.175781 548.9375 641.8125 C 550.035156 642.449219 551.199219 642.9375 552.421875 643.277344 C 552.664062 646.242188 550.347656 646.816406 548.308594 647.667969 C 537.183594 649.726562 525.851562 649.523438 514.617188 650.003906 C 482.351562 651.511719 450.058594 651.863281 417.730469 651.0625 C 402.453125 650.707031 387.15625 650.003906 371.894531 649.039062 C 368.296875 648.816406 364.421875 649.113281 361.402344 646.296875 Z M 361.402344 646.296875 " fill-opacity="1" fill-rule="nonzero"/><path fill="#dd9348" d="M 567.703125 592.699219 C 567.46875 585.886719 565.792969 579.449219 562.675781 573.386719 C 562.554688 573.136719 562.449219 572.878906 562.359375 572.617188 C 562.269531 572.355469 562.195312 572.089844 562.136719 571.820312 C 562.078125 571.546875 562.035156 571.273438 562.007812 571 C 561.980469 570.722656 561.96875 570.445312 561.976562 570.167969 C 561.984375 569.890625 562.003906 569.617188 562.042969 569.339844 C 562.082031 569.066406 562.140625 568.796875 562.210938 568.527344 C 562.28125 568.257812 562.367188 567.996094 562.472656 567.738281 C 562.574219 567.480469 562.691406 567.230469 562.824219 566.988281 C 562.957031 566.742188 563.101562 566.507812 563.261719 566.28125 C 563.421875 566.054688 563.59375 565.839844 563.78125 565.632812 C 563.96875 565.429688 564.164062 565.234375 564.375 565.050781 C 564.582031 564.871094 564.800781 564.699219 565.03125 564.542969 C 565.257812 564.386719 565.496094 564.246094 565.742188 564.117188 C 565.988281 563.988281 566.242188 563.875 566.5 563.777344 C 566.761719 563.679688 567.023438 563.597656 567.292969 563.53125 C 567.5625 563.460938 567.835938 563.410156 568.109375 563.378906 C 592.917969 559.761719 617.617188 555.742188 640.871094 545.714844 C 641.464844 545.453125 642.261719 545.046875 642.722656 545.234375 C 652.753906 549.070312 663.304688 552.164062 668.460938 563.007812 C 668.601562 563.492188 668.664062 563.984375 668.648438 564.488281 C 667.199219 569.34375 662.992188 571.402344 659.023438 573.515625 C 649.808594 578.097656 640.164062 581.457031 630.097656 583.597656 C 611.742188 587.886719 593.199219 591.085938 574.46875 593.199219 C 572.300781 593.511719 569.925781 593.957031 567.703125 592.699219 Z M 567.703125 592.699219 " fill-opacity="1" fill-rule="nonzero"/><path fill="#f2eddd" d="M 447.195312 227.582031 C 431.601562 207.34375 410.277344 193.183594 392.386719 175.445312 C 367.09375 150.390625 343.0625 124.347656 323.09375 94.769531 C 318.8125 88.898438 315.449219 82.539062 313.003906 75.699219 C 315.925781 76.382812 318.527344 77.699219 320.8125 79.644531 C 332.925781 88.46875 344.269531 98.191406 354.835938 108.816406 C 385.265625 138.0625 413.152344 169.441406 435.773438 205.195312 C 440.507812 212.183594 444.3125 219.648438 447.195312 227.582031 Z M 447.195312 227.582031 " fill-opacity="1" fill-rule="nonzero"/><path fill="#f9dd9a" d="M 567.703125 592.699219 C 580.792969 590.714844 593.921875 588.878906 606.976562 586.675781 C 620.773438 584.550781 634.289062 581.269531 647.527344 576.832031 C 655.371094 574.070312 662.730469 570.550781 668.683594 564.582031 C 672.910156 577.109375 669.089844 588.417969 657.800781 596.089844 C 646.507812 603.761719 633.527344 608.210938 620.34375 611.640625 C 605.667969 615.265625 590.832031 618.058594 575.84375 620.015625 C 572.375 620.515625 570.855469 619.664062 569.871094 616.160156 C 567.714844 608.472656 566.988281 600.652344 567.703125 592.699219 Z M 567.703125 592.699219 " fill-opacity="1" fill-rule="nonzero"/><path fill="#cc7d36" d="M 361.402344 646.296875 C 385.503906 647.835938 409.609375 649.207031 433.714844 649.320312 C 447.511719 649.320312 461.308594 649.578125 475.082031 649.320312 C 495.480469 648.875 515.988281 648.207031 536.402344 647.207031 C 540.722656 646.984375 545.042969 646.335938 549.382812 646.335938 C 559.617188 642.628906 570.464844 642.867188 581.070312 641.625 C 603.097656 639.050781 625.054688 636.066406 646.414062 629.726562 C 651.863281 628 657.125 625.8125 662.195312 623.167969 C 666.773438 620.925781 668.90625 622.371094 668.628906 627.003906 C 659.746094 634.417969 648.863281 637.234375 638.179688 640.347656 C 618.414062 646.09375 598.09375 649.097656 577.679688 651.46875 C 550.53125 654.882812 523.28125 656.894531 495.925781 657.511719 C 491.214844 658.605469 486.355469 657.230469 481.648438 658.269531 C 461.066406 658.703125 440.488281 658.703125 419.921875 658.269531 C 415.210938 657.230469 410.351562 658.605469 405.644531 657.511719 C 391.382812 657.9375 377.273438 655.878906 363.089844 655.304688 C 362.105469 655.125 361.167969 654.816406 360.269531 654.378906 C 359.929688 651.585938 360.304688 648.890625 361.402344 646.296875 Z M 361.402344 646.296875 " fill-opacity="1" fill-rule="nonzero"/><path fill="#d28537" d="M 430.15625 440.183594 C 435.144531 399.109375 435.886719 357.957031 432.378906 316.730469 C 431.714844 308.6875 430.953125 300.625 429.710938 292.636719 C 428.960938 286.917969 427.589844 281.351562 425.589844 275.941406 C 423.59375 270.53125 421.023438 265.40625 417.878906 260.574219 C 429.433594 258.070312 440.707031 258.125 451.980469 258.109375 C 455.132812 258.109375 455.019531 259.960938 454.835938 262.09375 C 454.09375 271.027344 451.257812 279.515625 449.382812 288.226562 C 441.96875 323.179688 440.261719 358.652344 441.207031 394.164062 C 441.628906 409.664062 443.339844 425.023438 446.34375 440.238281 C 445.105469 440.933594 443.800781 441.457031 442.429688 441.816406 C 441.054688 442.171875 439.660156 442.347656 438.242188 442.34375 C 436.824219 442.335938 435.429688 442.152344 434.058594 441.785156 C 432.6875 441.421875 431.386719 440.886719 430.15625 440.183594 Z M 430.15625 440.183594 " fill-opacity="1" fill-rule="nonzero"/><path fill="#d1843a" d="M 405.921875 692.519531 C 408.8125 693.519531 412.429688 694.910156 412.316406 697.96875 C 412.226562 700.710938 408.183594 700.917969 405.71875 701.546875 C 392.710938 704.554688 379.535156 706.039062 366.183594 705.996094 C 335.542969 706.816406 304.96875 705.769531 274.457031 702.863281 C 266.863281 702.226562 259.535156 700.488281 252.464844 697.65625 C 251.167969 697.097656 249.257812 696.671875 249.332031 694.835938 C 249.40625 693.003906 251 692.390625 252.355469 691.761719 C 260.554688 688.117188 269.117188 685.792969 278.035156 684.792969 C 285.210938 683.847656 292.40625 683.253906 299.597656 682.492188 C 308.074219 680.457031 316.289062 682.996094 324.484375 684.160156 C 347.085938 687.386719 369.800781 689.054688 392.589844 690.222656 C 397.078125 690.726562 401.523438 691.496094 405.921875 692.519531 Z M 405.921875 692.519531 " fill-opacity="1" fill-rule="nonzero"/><path fill="#f9dd9e" d="M 583.851562 526.144531 C 603.972656 523.324219 624.050781 520.414062 643.1875 513.167969 C 650.339844 510.570312 656.75 506.734375 662.417969 501.660156 C 666.347656 514.632812 662.621094 525.253906 651.160156 532.628906 C 635.640625 542.621094 618.117188 547.308594 600.355469 551.164062 C 590.949219 553.394531 581.445312 555.050781 571.835938 556.128906 C 577.828125 546.457031 583.277344 537.207031 583.851562 526.144531 Z M 583.851562 526.144531 " fill-opacity="1" fill-rule="nonzero"/><path fill="#d3843b" d="M 272.195312 676.433594 C 249.144531 681.882812 225.691406 680.25 202.363281 679.140625 C 187.03125 678.589844 171.855469 676.738281 156.84375 673.578125 C 152.699219 672.792969 148.722656 671.488281 144.917969 669.667969 C 142.472656 668.410156 142.675781 667.019531 144.472656 665.460938 C 147.019531 663.46875 149.851562 662.042969 152.96875 661.179688 C 170.117188 655.433594 187.957031 654.675781 205.773438 654.675781 C 213.488281 654.675781 221.257812 655.359375 228.859375 653.378906 C 229.542969 653.246094 230.21875 653.292969 230.878906 653.511719 C 231.539062 653.734375 232.101562 654.101562 232.570312 654.617188 C 242.320312 664.070312 254.820312 668.242188 267.296875 672.1875 C 268.953125 672.53125 270.5 673.148438 271.933594 674.042969 C 272.730469 674.636719 273.25 675.46875 272.195312 676.433594 Z M 272.195312 676.433594 " fill-opacity="1" fill-rule="nonzero"/><path fill="#dd9448" d="M 260.160156 577.480469 C 260.601562 574.277344 261.625 571.277344 263.238281 568.472656 C 266.742188 561.988281 270.933594 555.761719 269.355469 547.179688 C 282.71875 551.613281 296.316406 555.140625 310.148438 557.761719 C 314.265625 558.578125 318.394531 559.367188 322.535156 560.132812 C 331.011719 561.652344 333.792969 566.953125 329.84375 574.347656 C 326.597656 579.84375 324.050781 585.644531 322.203125 591.753906 C 302.960938 589.332031 283.980469 585.597656 265.257812 580.539062 C 264.253906 580.351562 263.3125 579.992188 262.433594 579.46875 C 261.558594 578.941406 260.800781 578.277344 260.160156 577.480469 Z M 260.160156 577.480469 " fill-opacity="1" fill-rule="nonzero"/><path fill="#dc9247" d="M 668.648438 626.875 C 668.144531 623.777344 666.792969 622.09375 663.566406 624.039062 C 648.027344 633.304688 630.449219 635.621094 613.1875 638.867188 C 592.121094 642.792969 570.707031 644.183594 549.402344 646.277344 L 552.421875 643.277344 C 562.492188 643.183594 567.925781 639.570312 570.726562 630.304688 C 571.855469 626.464844 574.433594 626.597656 577.160156 626.28125 C 594.476562 623.835938 611.722656 621.109375 628.484375 616.03125 C 635.605469 614.023438 642.527344 611.472656 649.25 608.378906 C 650.136719 607.898438 651.082031 607.660156 652.089844 607.660156 C 653.09375 607.660156 654.039062 607.898438 654.925781 608.378906 C 662.34375 611.9375 670 615.273438 672.652344 624.1875 Z M 668.648438 626.875 " fill-opacity="1" fill-rule="nonzero"/><path fill="#f9dd9c" d="M 260.160156 577.480469 C 279.539062 582.847656 299.1875 586.925781 319.105469 589.714844 C 320.550781 589.917969 321.738281 590.175781 322.128906 591.753906 C 320.515625 601.261719 323.40625 610.027344 327.042969 619.273438 C 318.371094 618.355469 309.78125 616.953125 301.269531 615.066406 C 289.664062 612.917969 278.316406 609.828125 267.222656 605.800781 C 266.589844 605.621094 265.996094 605.355469 265.4375 605.003906 C 264.882812 604.652344 264.382812 604.230469 263.949219 603.738281 C 263.511719 603.246094 263.152344 602.703125 262.871094 602.109375 C 262.589844 601.511719 262.394531 600.890625 262.292969 600.242188 C 260.789062 592.714844 257.953125 585.339844 260.160156 577.480469 Z M 260.160156 577.480469 " fill-opacity="1" fill-rule="nonzero"/><path fill="#d4853b" d="M 317.9375 524.085938 C 327.320312 525.402344 336.683594 527.105469 346.101562 527.921875 C 358.5625 528.996094 370.988281 530.886719 383.558594 530.144531 C 380.519531 540.230469 378.773438 550.902344 370.578125 558.613281 C 369.003906 559.132812 367.519531 560.246094 365.8125 560.042969 C 353.445312 558.652344 340.820312 558.984375 328.914062 554.480469 C 318.699219 546.253906 314.414062 534.351562 317.9375 524.085938 Z M 317.9375 524.085938 " fill-opacity="1" fill-rule="nonzero"/><path fill="#dd9347" d="M 252.855469 635.957031 C 254.1875 632.601562 256.914062 630.246094 259.085938 627.503906 C 262.03125 623.796875 264.8125 619.941406 264.871094 614.957031 C 264.871094 612.511719 265.742188 612.175781 267.890625 612.917969 C 287.246094 619.207031 307.027344 623.589844 327.226562 626.058594 C 330.378906 626.484375 330.398438 628.058594 329.082031 630.171875 C 328.253906 631.4375 327.289062 632.585938 326.1875 633.621094 C 321.394531 638.347656 317.246094 643.585938 313.746094 649.335938 C 313.148438 649.8125 312.472656 650.136719 311.722656 650.300781 C 310.976562 650.46875 310.226562 650.460938 309.480469 650.28125 C 292.164062 647.429688 274.753906 644.964844 258.007812 639.457031 C 256.082031 638.773438 253.929688 638.160156 252.855469 635.957031 Z M 252.855469 635.957031 " fill-opacity="1" fill-rule="nonzero"/><path fill="#dd944a" d="M 398.671875 521.917969 C 405.476562 514.792969 413.367188 509.199219 422.347656 505.144531 C 432.34375 500.863281 441.835938 503.828125 451.199219 507.460938 C 453.203125 508.257812 455.273438 508.789062 457.414062 509.054688 C 465.609375 510.09375 473.859375 508.757812 482.054688 509.742188 C 484.339844 510.179688 486.574219 510.800781 488.757812 511.609375 C 490.9375 512.414062 493.039062 513.398438 495.058594 514.550781 C 497.078125 515.707031 498.988281 517.023438 500.789062 518.496094 C 502.589844 519.964844 504.253906 521.578125 505.789062 523.324219 C 504.714844 526.292969 502.082031 525.734375 499.835938 525.902344 C 481.355469 527.246094 462.855469 527.542969 444.339844 526.792969 C 432.230469 526.292969 420.125 526.328125 408.035156 525.808594 C 404.640625 525.660156 400.449219 526.382812 398.671875 521.917969 Z M 398.671875 521.917969 " fill-opacity="1" fill-rule="nonzero"/><path fill="#f9dd9d" d="M 252.855469 635.957031 C 272.601562 643.089844 293.3125 645.871094 313.875 649.335938 C 312.492188 654.183594 311.78125 659.125 311.746094 664.164062 C 311.597656 672.335938 306.847656 676.15625 298.765625 674.414062 C 291.460938 672.835938 284.191406 671.671875 277.699219 666.886719 C 272.992188 663.421875 266.574219 662.328125 261.011719 659.976562 C 251 655.824219 247.605469 645.835938 252.855469 635.957031 Z M 252.855469 635.957031 " fill-opacity="1" fill-rule="nonzero"/><path fill="#dc9346" d="M 266.648438 513.910156 C 272.546875 505.441406 281.632812 501.605469 290.605469 497.878906 C 304.410156 492.460938 318.558594 488.179688 333.050781 485.035156 C 336.867188 484.152344 340.714844 483.960938 344.601562 484.460938 C 346.269531 484.664062 348.308594 484.867188 348.753906 486.664062 C 349.199219 488.464844 347.199219 489.074219 345.992188 489.890625 C 340.6875 493.429688 335.273438 496.839844 329.972656 500.398438 C 321.421875 506.125 314.414062 513.167969 310.816406 523.085938 C 310.070312 523.644531 309.234375 524.007812 308.316406 524.175781 C 307.394531 524.339844 306.484375 524.292969 305.589844 524.03125 C 294.335938 522.320312 283.210938 519.996094 272.210938 517.0625 C 270.078125 516.488281 267.875 516.023438 266.648438 513.910156 Z M 266.648438 513.910156 " fill-opacity="1" fill-rule="nonzero"/><path fill="#f8dc9d" d="M 266.648438 513.910156 C 281.164062 517.96875 295.886719 521.027344 310.816406 523.085938 C 310.308594 525.628906 310.085938 528.199219 310.140625 530.796875 C 310.195312 533.390625 310.53125 535.949219 311.148438 538.472656 C 311.765625 540.992188 312.648438 543.417969 313.796875 545.746094 C 314.945312 548.074219 316.332031 550.25 317.957031 552.277344 C 301.597656 549.855469 285.644531 545.828125 270.097656 540.191406 C 269.355469 539.914062 268.246094 539.394531 268.246094 538.78125 C 265.832031 530.609375 262.402344 522.492188 266.648438 513.910156 Z M 266.648438 513.910156 " fill-opacity="1" fill-rule="nonzero"/><path fill="#d18035" d="M 313.671875 676.542969 C 315.183594 674.863281 316.320312 672.960938 317.085938 670.832031 C 317.847656 668.707031 318.183594 666.515625 318.085938 664.257812 C 318.085938 659.457031 318.253906 654.617188 320.960938 650.355469 C 321.386719 650.078125 321.8125 649.632812 322.277344 649.632812 C 332.753906 649.96875 343.230469 650.46875 353.148438 654.433594 C 353.199219 658.933594 353.527344 663.410156 354.132812 667.871094 C 355.28125 674.042969 357.839844 679.269531 363.199219 682.699219 C 362.753906 685.476562 360.511719 684.828125 358.898438 684.71875 C 345.230469 683.71875 331.621094 682.328125 318.105469 680.195312 C 315.898438 679.917969 313.65625 679.546875 313.671875 676.542969 Z M 313.671875 676.542969 " fill-opacity="1" fill-rule="nonzero"/><path fill="#d0813a" d="M 398.671875 521.917969 C 401.515625 523.441406 404.550781 524.140625 407.773438 524.011719 C 431.640625 523.769531 455.464844 525.863281 479.3125 525.03125 C 488.15625 524.699219 496.964844 523.898438 505.789062 523.324219 C 509.664062 526.011719 512.355469 529.921875 515.800781 533.054688 C 495.40625 533.390625 475.175781 534.148438 454.871094 533.945312 C 433.402344 533.742188 411.929688 532.628906 390.457031 531.90625 C 392.335938 527.871094 395.074219 524.542969 398.671875 521.917969 Z M 398.671875 521.917969 " fill-opacity="1" fill-rule="nonzero"/><path fill="#cc7b34" d="M 525.148438 533.09375 C 525.328125 532.773438 525.554688 532.484375 525.820312 532.230469 C 526.089844 531.976562 526.386719 531.765625 526.71875 531.601562 C 527.050781 531.433594 527.394531 531.320312 527.761719 531.261719 C 528.125 531.199219 528.488281 531.191406 528.855469 531.238281 C 543.890625 530.847656 558.847656 529.558594 573.730469 527.367188 C 577.121094 526.902344 576.398438 529.480469 576.734375 531.296875 C 574.285156 541.839844 568.535156 550.535156 561.378906 558.429688 C 555.128906 560.707031 548.863281 562.820312 542.300781 559.484375 C 541.707031 551.421875 537.070312 545.546875 531.75 540.023438 Z M 525.148438 533.09375 " fill-opacity="1" fill-rule="nonzero"/><path fill="#d38238" d="M 334.273438 619.832031 C 331.175781 612.695312 327.875 605.617188 328.042969 597.589844 C 327.886719 595.566406 328.222656 593.625 329.042969 591.769531 C 329.574219 591.203125 330.207031 590.792969 330.941406 590.539062 C 331.679688 590.285156 332.429688 590.222656 333.199219 590.34375 C 339.558594 591.492188 346.417969 589.898438 352.316406 593.753906 L 355.097656 622.925781 C 353.351562 623.425781 351.574219 623.738281 349.761719 623.859375 C 347.949219 623.976562 346.144531 623.90625 344.347656 623.636719 C 342.550781 623.371094 340.804688 622.917969 339.105469 622.273438 C 337.40625 621.632812 335.796875 620.820312 334.273438 619.832031 Z M 334.273438 619.832031 " fill-opacity="1" fill-rule="nonzero"/><path fill="#a74a17" d="M 353.148438 654.433594 C 342.320312 653.894531 331.714844 651.578125 320.960938 650.355469 C 323.074219 645.445312 326.984375 641.980469 330.65625 638.328125 C 333.03125 635.9375 335.441406 633.601562 336.21875 630.15625 C 336.40625 627.394531 337.574219 625.800781 340.632812 626.132812 C 341.949219 626.28125 343.304688 626.261719 344.65625 626.335938 C 355.78125 627.003906 356.746094 628.078125 355.355469 639.308594 Z M 353.148438 654.433594 " fill-opacity="1" fill-rule="nonzero"/><path fill="#a44b1a" d="M 352.316406 593.734375 L 329.042969 591.753906 C 329.898438 586.027344 333.214844 581.355469 335.886719 576.425781 C 338.167969 572.253906 338.964844 568.046875 336.851562 563.601562 C 337.238281 560.765625 339.558594 560.820312 341.449219 560.949219 C 347.773438 561.375 354.039062 562.582031 360.382812 562.988281 C 361.808594 563.082031 363.460938 563.507812 363.476562 565.5625 C 355.097656 573.125 351.832031 582.691406 352.316406 593.734375 Z M 352.316406 593.734375 " fill-opacity="1" fill-rule="nonzero"/><path fill="#6f3510" d="M 313.671875 676.542969 C 314.320312 678.398438 315.878906 678.398438 317.382812 678.546875 L 360.882812 683.476562 C 361.300781 683.570312 361.714844 683.554688 362.125 683.429688 C 362.535156 683.300781 362.886719 683.082031 363.179688 682.773438 C 372.25 687.386719 382.335938 687.015625 391.996094 688.664062 C 396.78125 689.460938 401.601562 690.019531 405.902344 692.519531 C 387.507812 691.484375 369.113281 690.851562 350.777344 689.183594 C 333.605469 687.628906 316.714844 684.160156 299.582031 682.492188 C 304.496094 680.992188 309.628906 680.046875 313.671875 676.542969 Z M 313.671875 676.542969 " fill-opacity="1" fill-rule="nonzero"/><path fill="#d58e46" d="M 237.148438 500.695312 C 239.300781 494.265625 244.566406 490.855469 250.128906 487.945312 C 261.699219 481.921875 274.234375 478.679688 286.75 475.230469 C 304.234375 470.355469 321.777344 465.667969 339.296875 460.921875 C 341.152344 460.402344 343.171875 460.050781 346.140625 459.402344 C 333.421875 466.09375 320.421875 468.1875 307.796875 471.449219 C 294.40625 474.898438 281.167969 478.695312 268.707031 484.777344 C 258.84375 489.59375 250.386719 496.027344 245.105469 505.941406 C 240.429688 507.164062 239.261719 503.199219 237.148438 500.695312 Z M 237.148438 500.695312 " fill-opacity="1" fill-rule="nonzero"/><path fill="#a74f1d" d="M 551.253906 593.808594 C 549.011719 588.769531 546.804688 583.726562 544.523438 578.722656 C 543.570312 576.839844 542.90625 574.855469 542.535156 572.777344 C 542.167969 570.695312 542.105469 568.605469 542.355469 566.507812 C 545.210938 563.359375 548.917969 563.453125 552.628906 564.027344 C 554.351562 564.304688 556.539062 564.75 555.484375 567.527344 C 555.203125 570.03125 554.816406 572.570312 556.296875 574.832031 C 562.25 583.78125 561.863281 593.792969 561.359375 603.855469 C 561.019531 603.886719 560.699219 603.816406 560.402344 603.644531 C 560.105469 603.46875 559.886719 603.226562 559.746094 602.910156 C 557.429688 599.398438 554.597656 596.367188 551.253906 593.808594 Z M 551.253906 593.808594 " fill-opacity="1" fill-rule="nonzero"/><path fill="#d2853b" d="M 551.253906 593.808594 L 552.257812 593.808594 C 559.933594 593.808594 559.914062 593.808594 560.582031 601.539062 C 560.738281 602.351562 560.996094 603.128906 561.359375 603.875 C 561.945312 609.039062 563.054688 614.09375 564.679688 619.035156 C 564.792969 619.347656 565.050781 619.757812 564.941406 619.980469 C 562.566406 624.425781 551.402344 625.078125 548.160156 620.980469 C 550.660156 612.046875 552.851562 603.167969 551.253906 593.808594 Z M 551.253906 593.808594 " fill-opacity="1" fill-rule="nonzero"/><path fill="#df9d4f" d="M 444.117188 240.277344 L 445.265625 239.257812 C 448.179688 242.953125 450.363281 247.035156 451.8125 251.507812 C 436.980469 251.175781 422.71875 251.398438 408.851562 255.214844 C 408.535156 252.121094 407.550781 249.65625 403.917969 249.15625 C 404.734375 245.894531 407.625 246.226562 409.945312 245.949219 C 419.035156 244.484375 428.179688 243.6875 437.386719 243.558594 C 440.316406 243.59375 442.632812 242.945312 444.117188 240.277344 Z M 444.117188 240.277344 " fill-opacity="1" fill-rule="nonzero"/><path fill="#733712" d="M 272.195312 676.433594 C 272.0625 674.171875 270.078125 674.726562 268.800781 674.285156 C 257.433594 670.316406 245.640625 667.351562 236.09375 659.457031 C 233.644531 657.4375 231.269531 655.34375 228.859375 653.285156 L 234.996094 649.300781 C 238.707031 649.078125 240.265625 652.394531 242.933594 653.878906 C 244.527344 654.765625 245.34375 656.640625 247.125 657.363281 C 251.203125 663.238281 257.339844 665.8125 263.8125 667.871094 C 266.6875 668.796875 269.597656 669.722656 272.398438 670.761719 C 273.898438 671.355469 276.105469 671.855469 275.996094 673.839844 C 275.882812 675.820312 273.824219 676.042969 272.195312 676.433594 Z M 272.195312 676.433594 " fill-opacity="1" fill-rule="nonzero"/><path fill="#693211" d="M 363.476562 565.5625 C 358.117188 563.527344 352.351562 564.5625 346.789062 563.527344 C 343.542969 562.914062 340.078125 560.855469 336.777344 563.527344 L 328.878906 554.59375 C 339.28125 555.703125 349.683594 556.851562 360.085938 557.910156 C 363.550781 558.28125 367.054688 558.449219 370.542969 558.707031 C 368.523438 561.335938 366.167969 563.625 363.476562 565.5625 Z M 363.476562 565.5625 " fill-opacity="1" fill-rule="nonzero"/><path fill="#ad531e" d="M 246.140625 573.570312 C 247.71875 567.660156 251.554688 562.875 254.113281 557.484375 C 254.957031 555.488281 255.691406 553.457031 256.320312 551.386719 C 256.6875 549.941406 256.8125 548.476562 256.691406 546.992188 C 256.878906 545.34375 255.894531 543.101562 258.546875 542.527344 C 259.039062 542.425781 259.53125 542.417969 260.027344 542.503906 C 260.519531 542.585938 260.984375 542.757812 261.414062 543.019531 C 261.84375 543.277344 262.210938 543.605469 262.515625 544.003906 C 262.820312 544.402344 263.042969 544.84375 263.183594 545.324219 C 263.472656 546.855469 263.597656 548.398438 263.5625 549.957031 C 263.527344 551.511719 263.332031 553.050781 262.976562 554.566406 C 262.621094 556.082031 262.113281 557.546875 261.449219 558.953125 C 260.789062 560.363281 259.988281 561.691406 259.046875 562.933594 C 256.023438 567.027344 254.765625 571.957031 253.484375 576.796875 C 252.121094 576.664062 250.808594 576.324219 249.554688 575.773438 C 248.296875 575.222656 247.160156 574.488281 246.140625 573.570312 Z M 246.140625 573.570312 " fill-opacity="1" fill-rule="nonzero"/><path fill="#8c3f14" d="M 548.160156 620.960938 C 552.664062 622.816406 562.101562 621.722656 564.679688 619.015625 C 565.125 620.144531 565.429688 621.3125 565.585938 622.515625 C 565.746094 623.722656 565.757812 624.925781 565.621094 626.132812 C 565.484375 627.339844 565.203125 628.515625 564.777344 629.652344 C 564.351562 630.789062 563.792969 631.859375 563.105469 632.859375 C 562.871094 633.261719 562.605469 633.644531 562.308594 634.003906 C 562.011719 634.363281 561.6875 634.695312 561.335938 635 C 560.984375 635.304688 560.609375 635.578125 560.210938 635.820312 C 559.8125 636.0625 559.398438 636.269531 558.964844 636.441406 C 558.535156 636.613281 558.089844 636.75 557.632812 636.847656 C 557.179688 636.945312 556.71875 637.007812 556.253906 637.027344 C 555.789062 637.050781 555.324219 637.035156 554.863281 636.976562 C 554.398438 636.921875 553.945312 636.828125 553.5 636.695312 C 553.046875 636.585938 552.609375 636.433594 552.183594 636.242188 C 551.761719 636.054688 551.355469 635.828125 550.972656 635.566406 C 550.589844 635.304688 550.230469 635.011719 549.898438 634.6875 C 549.566406 634.363281 549.265625 634.011719 548.996094 633.632812 C 548.722656 633.253906 548.488281 632.855469 548.289062 632.433594 C 548.09375 632.015625 547.929688 631.578125 547.808594 631.132812 C 547.6875 630.683594 547.605469 630.226562 547.566406 629.765625 C 547.523438 629.300781 547.523438 628.839844 547.566406 628.375 C 547.566406 625.910156 546.824219 623.335938 548.160156 620.960938 Z M 548.160156 620.960938 " fill-opacity="1" fill-rule="nonzero"/><path fill="#cf8139" d="M 251.167969 508.90625 L 260.269531 511.964844 C 256.96875 519.730469 258.417969 527.441406 260.53125 535.148438 C 258.269531 537.578125 257.75 537.503906 254.171875 534.261719 C 249.941406 526.144531 247.292969 517.914062 251.167969 508.90625 Z M 251.167969 508.90625 " fill-opacity="1" fill-rule="nonzero"/><path fill="#d48d48" d="M 420.957031 448.042969 C 420.304688 448.996094 419.542969 449.859375 418.679688 450.628906 C 417.8125 451.398438 416.867188 452.054688 415.839844 452.589844 C 414.8125 453.128906 413.738281 453.535156 412.613281 453.808594 C 411.484375 454.085938 410.34375 454.21875 409.183594 454.214844 C 395.667969 454.527344 382.148438 454.34375 370.355469 454.34375 C 387.050781 450.855469 403.917969 448.753906 420.957031 448.042969 Z M 420.957031 448.042969 " fill-opacity="1" fill-rule="nonzero"/><path fill="#cf8239" d="M 246.140625 573.570312 C 248.757812 574.164062 251.945312 573.570312 253.355469 576.796875 C 252.851562 584.898438 253.722656 592.847656 255.96875 600.648438 C 253.113281 602.667969 251.816406 600.277344 250.257812 598.628906 C 246.789062 590.621094 242.972656 582.671875 246.140625 573.570312 Z M 246.140625 573.570312 " fill-opacity="1" fill-rule="nonzero"/><path fill="#d1914d" d="M 231.160156 639.589844 C 227.453125 627.132812 233.605469 615.496094 244.660156 611.601562 C 247.550781 610.601562 247.605469 611.9375 247.105469 613.84375 C 246.777344 615.332031 246.109375 616.648438 245.105469 617.792969 C 239.058594 623.816406 233.605469 630.210938 231.160156 639.589844 Z M 231.160156 639.589844 " fill-opacity="1" fill-rule="nonzero"/><path fill="#d1833c" d="M 247.125 657.363281 C 241.746094 656.675781 239.097656 651.914062 234.996094 649.300781 C 236.648438 643.480469 237.910156 637.492188 241.226562 632.265625 C 243.324219 631.730469 245.546875 630.894531 246.140625 634.121094 C 245.339844 635.96875 244.753906 637.882812 244.386719 639.863281 C 244.019531 641.84375 243.878906 643.839844 243.960938 645.855469 C 244.046875 647.867188 244.355469 649.84375 244.890625 651.789062 C 245.425781 653.730469 246.167969 655.589844 247.125 657.363281 Z M 247.125 657.363281 " fill-opacity="1" fill-rule="nonzero"/><path fill="#d28c41" d="M 233.089844 563.527344 C 235.351562 556.113281 241.691406 552.867188 247.921875 549.550781 C 248.589844 549.199219 249.777344 548.734375 250.089844 549.699219 C 250.261719 550.695312 250.082031 551.621094 249.554688 552.480469 C 246.511719 558.207031 243.378906 563.878906 240.28125 569.550781 C 236.257812 569.417969 234.496094 566.695312 233.089844 563.527344 Z M 233.089844 563.527344 " fill-opacity="1" fill-rule="nonzero"/><path fill="#edd69b" d="M 237.148438 500.695312 C 240.597656 501.214844 241.507812 505.535156 245.03125 505.941406 C 243.820312 509.289062 243.148438 512.746094 243.007812 516.304688 C 242.867188 519.863281 243.269531 523.359375 244.214844 526.792969 C 236.316406 521.527344 233.664062 511.242188 237.148438 500.695312 Z M 237.148438 500.695312 " fill-opacity="1" fill-rule="nonzero"/><path fill="#eed79c" d="M 233.089844 563.527344 L 240.226562 569.550781 C 239.136719 573.027344 238.574219 576.585938 238.542969 580.230469 C 238.511719 583.871094 239.011719 587.441406 240.042969 590.9375 C 232.585938 585.953125 229.582031 573.773438 233.089844 563.527344 Z M 233.089844 563.527344 " fill-opacity="1" fill-rule="nonzero"/><path fill="#743513" d="M 355.375 639.347656 C 355.316406 639.023438 355.28125 638.695312 355.261719 638.363281 C 355.039062 628.300781 355.039062 628.097656 344.675781 628.246094 C 341.914062 628.246094 338.054688 625.410156 336.238281 630.097656 C 336.488281 626.484375 335.832031 623.042969 334.273438 619.777344 C 341.117188 621.519531 348.160156 621.777344 355.097656 622.851562 C 356.226562 628.375 357.230469 633.84375 355.375 639.347656 Z M 355.375 639.347656 " fill-opacity="1" fill-rule="nonzero"/><path fill="#773713" d="M 430.15625 440.183594 L 446.378906 440.183594 C 447.476562 442.390625 448.09375 444.726562 448.234375 447.1875 L 428.042969 447.1875 C 428.800781 444.929688 429.488281 442.554688 430.15625 440.183594 Z M 430.15625 440.183594 " fill-opacity="1" fill-rule="nonzero"/><path fill="#aa5421" d="M 246.140625 634.289062 C 244.898438 632.636719 242.65625 633.527344 241.226562 632.433594 C 243.082031 628.726562 246.4375 626.449219 249.054688 623.464844 C 251.113281 621.429688 252.550781 619.019531 253.355469 616.234375 C 253.707031 614.636719 253.804688 613.027344 253.652344 611.398438 C 253.761719 607.914062 255.503906 607.582031 258.066406 609.191406 C 258.414062 610.539062 258.574219 611.90625 258.542969 613.296875 C 258.511719 614.683594 258.296875 616.042969 257.890625 617.375 C 257.484375 618.703125 256.90625 619.953125 256.152344 621.125 C 255.402344 622.292969 254.507812 623.339844 253.464844 624.261719 C 250.648438 627.328125 248.207031 630.671875 246.140625 634.289062 Z M 246.140625 634.289062 " fill-opacity="1" fill-rule="nonzero"/><path fill="#6e3311" d="M 555.484375 567.566406 C 554.109375 563.859375 550.976562 565.824219 548.660156 565.710938 C 546.523438 565.773438 544.421875 566.074219 542.355469 566.621094 L 542.355469 559.503906 C 548.769531 560.1875 555.019531 557.796875 561.433594 558.445312 Z M 555.484375 567.566406 " fill-opacity="1" fill-rule="nonzero"/><path fill="#642e12" d="M 254.113281 534.207031 C 256.339844 533.703125 258.007812 537.207031 260.476562 535.09375 C 261.832031 538.375 262.722656 541.78125 263.144531 545.308594 C 257.730469 542.414062 257.582031 542.433594 257.285156 548.199219 C 257.390625 549.382812 257.070312 550.441406 256.320312 551.367188 C 256.652344 545.507812 255.917969 539.789062 254.113281 534.207031 Z M 254.113281 534.207031 " fill-opacity="1" fill-rule="nonzero"/><path fill="#5e2d10" d="M 258.066406 609.027344 C 255.449219 608.617188 253.984375 609.414062 254.207031 612.363281 C 254.34375 613.011719 254.335938 613.660156 254.1875 614.308594 C 254.039062 614.957031 253.761719 615.542969 253.355469 616.070312 C 253.546875 613.078125 253.378906 610.109375 252.855469 607.164062 C 252.332031 604.214844 251.464844 601.367188 250.257812 598.628906 L 255.96875 600.648438 C 257.25 603.296875 257.949219 606.089844 258.066406 609.027344 Z M 258.066406 609.027344 " fill-opacity="1" fill-rule="nonzero"/><path fill="#d0813a" d="M 482.054688 509.742188 C 473.839844 509.554688 465.570312 510.964844 457.414062 509.054688 C 465.609375 509.683594 473.898438 507.738281 482.054688 509.742188 Z M 482.054688 509.742188 " fill-opacity="1" fill-rule="nonzero"/><path fill="#dc9246" d="M 360.398438 654.378906 C 360.398438 657.695312 360.25 661.011719 360.160156 664.332031 C 359.230469 660.976562 358.675781 657.660156 360.398438 654.378906 Z M 360.398438 654.378906 " fill-opacity="1" fill-rule="nonzero"/><path fill="#8c441b" d="M 444.117188 240.277344 C 445.84375 244.152344 444.65625 245.375 440.410156 245.246094 C 429.0625 244.910156 417.84375 246.5625 406.625 248.097656 C 405.574219 248.0625 404.671875 248.40625 403.917969 249.136719 C 382.296875 256.105469 368.355469 271.488281 358.304688 290.949219 C 353.277344 300.660156 348.589844 310.539062 344.136719 320.511719 C 323 367.863281 285.804688 394.777344 236 405.765625 C 222.316406 408.765625 208.476562 410.578125 194.484375 411.195312 C 191.617188 411.351562 188.8125 411.003906 186.070312 410.15625 C 183.328125 409.308594 180.816406 408.011719 178.535156 406.265625 C 164.425781 396 152.261719 383.65625 140.582031 370.828125 C 125.980469 355.132812 112.894531 338.261719 101.328125 320.214844 L 101.066406 319.789062 C 94.113281 309.410156 91.796875 298.863281 95.097656 286.039062 C 101.640625 260.925781 110.078125 236.90625 124.765625 215.332031 C 127.378906 211.625 130.105469 209.417969 134.960938 209.769531 C 139.820312 210.125 144.734375 209.769531 149.609375 209.769531 C 151.167969 209.769531 153.039062 208.957031 154.226562 210.789062 C 154.433594 214.183594 151.539062 215.609375 149.703125 217.628906 C 136.039062 232.828125 124.914062 249.488281 119.128906 269.265625 C 118.363281 271.523438 118.0625 273.839844 118.21875 276.214844 C 118.460938 278.660156 119.757812 278.996094 121.628906 277.714844 C 123.089844 276.554688 124.328125 275.1875 125.339844 273.621094 C 131.941406 264.890625 137.058594 255.085938 143.214844 246.152344 C 150.621094 235.074219 159.171875 224.953125 168.859375 215.792969 C 171.046875 213.773438 173.085938 211.402344 176.273438 211.03125 C 177.59375 210.808594 178.921875 210.664062 180.261719 210.605469 C 225.039062 210.734375 269.839844 209.753906 314.582031 212.050781 C 353.09375 214.035156 391.03125 219.132812 427.542969 232.105469 C 433.417969 234.085938 439.335938 236.035156 444.117188 240.277344 Z M 444.117188 240.277344 " fill-opacity="1" fill-rule="nonzero"/><path fill="#040303" d="M 145.585938 161.953125 C 147.832031 126.164062 162.832031 96.640625 194.964844 77.199219 C 208.777344 68.859375 223.816406 66.078125 239.464844 72.304688 C 257.84375 79.71875 270.117188 103.054688 266.019531 122.347656 C 264.628906 128.910156 260.457031 133.300781 254.894531 136.710938 C 244.398438 143.328125 232.457031 146.625 220.777344 150.074219 C 210.761719 153.003906 200.730469 155.800781 190.90625 159.339844 C 178.082031 163.648438 166.066406 169.585938 154.859375 177.152344 C 150.167969 180.414062 147.441406 179.226562 146.515625 173.613281 C 145.976562 170.070312 145.9375 166.511719 145.585938 161.953125 Z M 145.585938 161.953125 " fill-opacity="1" fill-rule="nonzero"/><path fill="#fdfdfc" d="M 176.347656 211.03125 C 157.175781 226.710938 143.917969 247.097656 131.105469 267.835938 C 129.277344 270.859375 127.25 273.738281 125.023438 276.472656 C 123.28125 278.585938 121.425781 282.035156 118.253906 280.570312 C 114.734375 278.996094 116.289062 275.195312 116.808594 272.414062 C 118.421875 264.640625 121.121094 257.265625 124.914062 250.285156 C 132.570312 235.558594 142.367188 222.425781 154.300781 210.882812 C 160.644531 203.339844 168.726562 197.910156 176.980469 192.832031 C 192.257812 183.269531 209.503906 178.46875 226.191406 172.257812 C 228.546875 171.371094 230.84375 170.277344 233.253906 169.570312 C 235.664062 168.867188 239.113281 166.644531 240.671875 170.535156 C 241.988281 173.851562 238.816406 175.078125 236.40625 176.335938 C 233.996094 177.597656 232.199219 178.46875 230.066406 179.488281 C 212.523438 188.050781 195.226562 196.984375 179.703125 208.972656 C 178.683594 209.863281 176.960938 209.550781 176.347656 211.03125 Z M 176.347656 211.03125 " fill-opacity="1" fill-rule="nonzero"/><path fill="#fcfbf5" d="M 183.023438 63.449219 C 183.441406 63.414062 183.855469 63.449219 184.261719 63.550781 C 184.667969 63.648438 185.046875 63.8125 185.402344 64.03125 C 185.757812 64.253906 186.070312 64.527344 186.339844 64.847656 C 186.605469 65.167969 186.820312 65.523438 186.972656 65.914062 C 187.121094 66.398438 187.183594 66.894531 187.160156 67.402344 C 187.136719 67.910156 187.035156 68.402344 186.847656 68.871094 C 186.660156 69.34375 186.402344 69.773438 186.070312 70.160156 C 185.738281 70.542969 185.355469 70.863281 184.914062 71.121094 C 180.984375 74.253906 176.683594 76.957031 173.046875 80.386719 C 169.285156 83.855469 165.753906 87.546875 162.453125 91.457031 C 159.15625 95.367188 156.109375 99.46875 153.324219 103.761719 C 150.535156 108.050781 148.027344 112.5 145.796875 117.105469 C 143.5625 121.707031 141.628906 126.433594 139.988281 131.28125 C 138.78125 134.988281 137.539062 138.601562 136.277344 142.269531 C 135.574219 144.402344 134.980469 146.773438 131.976562 145.976562 C 128.972656 145.179688 128.269531 142.625 128.824219 140.011719 C 129.996094 134.089844 131.582031 128.285156 133.570312 122.589844 C 140.582031 104.757812 150.257812 88.617188 164.59375 75.53125 C 169.304688 70.933594 174.621094 67.1875 180.539062 64.300781 C 181.351562 63.96875 182.179688 63.683594 183.023438 63.449219 Z M 183.023438 63.449219 " fill-opacity="1" fill-rule="nonzero"/><path fill="#fafaf9" d="M 362.066406 524.660156 C 351.972656 524.207031 341.972656 522.96875 332.066406 520.953125 C 331.085938 520.769531 330.210938 520.453125 329.15625 520.195312 C 327.746094 519.824219 326.484375 519.175781 326.855469 517.488281 C 327.226562 515.800781 328.710938 515.96875 330.101562 516.265625 C 338.015625 517.886719 346.007812 518.925781 354.078125 519.378906 C 360.789062 519.765625 367.5 519.953125 374.230469 520.269531 C 375.863281 520.269531 378.125 520.269531 378.105469 522.472656 C 378.089844 524.679688 375.753906 524.585938 374.15625 524.640625 C 370.132812 524.753906 366.109375 524.660156 362.066406 524.660156 Z M 362.066406 524.660156 " fill-opacity="1" fill-rule="nonzero"/><path fill="#f8f9f7" d="M 464.886719 497.136719 C 459.621094 497.308594 454.476562 496.589844 449.457031 494.988281 C 442.464844 492.785156 435.316406 492.058594 428.023438 492.820312 C 426.503906 492.96875 424.167969 494.078125 423.832031 491.613281 C 423.5 489.148438 426.152344 489.09375 427.820312 488.871094 C 434.390625 487.820312 440.902344 488.128906 447.34375 489.796875 C 454.804688 492.089844 462.4375 493.152344 470.242188 492.984375 C 471.894531 492.984375 474.507812 492.410156 474.417969 495.210938 C 474.417969 497.636719 471.949219 496.953125 470.429688 497.0625 C 468.582031 497.179688 466.734375 497.207031 464.886719 497.136719 Z M 464.886719 497.136719 " fill-opacity="1" fill-rule="nonzero"/><path fill="#f8f8f7" d="M 535.976562 524.011719 C 533.25 523.714844 528.726562 523.382812 524.257812 522.714844 C 523.015625 522.527344 520.882812 522.398438 521.308594 520.136719 C 521.734375 517.875 523.292969 517.730469 525.148438 518.0625 C 530.628906 519.019531 536.148438 519.367188 541.707031 519.105469 C 547.265625 518.847656 552.730469 517.988281 558.097656 516.523438 C 559.804688 516.058594 561.285156 516.246094 561.804688 518.007812 C 562.324219 519.765625 560.601562 520.546875 559.191406 520.992188 C 552.21875 523.234375 545.023438 523.808594 535.976562 524.011719 Z M 535.976562 524.011719 " fill-opacity="1" fill-rule="nonzero"/><path fill="#ece2d9" d="M 488.117188 493.96875 C 489.527344 494.46875 491.828125 494.171875 491.828125 496.433594 C 491.828125 498.695312 489.695312 498.601562 488.117188 498.472656 C 486.542969 498.34375 484.503906 498.046875 484.671875 495.785156 C 484.835938 493.523438 486.488281 493.929688 488.117188 493.96875 Z M 488.117188 493.96875 " fill-opacity="1" fill-rule="nonzero"/><path fill="#dc9246" d="M 405.660156 657.511719 C 410.425781 657.675781 415.265625 656.527344 419.9375 658.269531 C 415.171875 658.214844 410.351562 659.085938 405.660156 657.511719 Z M 405.660156 657.511719 " fill-opacity="1" fill-rule="nonzero"/><path fill="#dc9246" d="M 481.667969 658.269531 C 486.339844 656.527344 491.179688 657.675781 495.945312 657.511719 C 491.253906 659.066406 486.488281 658.214844 481.667969 658.269531 Z M 481.667969 658.269531 " fill-opacity="1" fill-rule="nonzero"/><path fill="#f6f8f3" d="M 304.160156 699.007812 C 293.894531 698.949219 283.679688 698.210938 273.511719 696.800781 C 272.011719 696.582031 270.527344 696.285156 269.058594 695.914062 C 266.722656 695.375 263.8125 694.78125 264.738281 691.632812 C 265.832031 687.925781 268.449219 690.980469 270.097656 691.335938 C 277.738281 692.664062 285.433594 693.417969 293.183594 693.59375 C 301.082031 694.078125 309 694.355469 316.898438 694.746094 C 318.753906 694.746094 321.015625 694.894531 320.996094 697.394531 C 320.980469 699.898438 318.660156 699.824219 316.824219 699.730469 C 312.28125 699.507812 307.738281 699.15625 304.160156 699.007812 Z M 304.160156 699.007812 " fill-opacity="1" fill-rule="nonzero"/><path fill="#f0ede7" d="M 339.261719 701.007812 C 336.960938 699.953125 332.363281 702.472656 332.550781 698.171875 C 332.734375 693.875 337.074219 696.152344 339.578125 696.058594 C 342.078125 695.96875 345.789062 695.375 345.75 698.488281 C 345.695312 702.511719 341.578125 700.195312 339.261719 701.007812 Z M 339.261719 701.007812 " fill-opacity="1" fill-rule="nonzero"/><path fill="#f5f7f1" d="M 194.410156 674.429688 C 184.019531 674.007812 173.78125 672.558594 163.683594 670.078125 C 161.792969 669.476562 159.992188 668.667969 158.289062 667.648438 C 158.027344 667.5 157.808594 667.304688 157.628906 667.066406 C 157.445312 666.828125 157.320312 666.566406 157.246094 666.273438 C 157.171875 665.984375 157.160156 665.691406 157.203125 665.398438 C 157.25 665.101562 157.351562 664.824219 157.507812 664.570312 C 157.625 664.292969 157.789062 664.050781 158.007812 663.84375 C 158.222656 663.636719 158.472656 663.480469 158.753906 663.375 C 159.035156 663.273438 159.324219 663.230469 159.625 663.246094 C 159.925781 663.265625 160.210938 663.339844 160.476562 663.476562 C 172.214844 668.277344 184.824219 667.648438 197.042969 669.390625 C 198.894531 669.667969 201.75 669.207031 201.675781 671.984375 C 201.675781 675.191406 198.582031 674.171875 196.558594 674.375 C 195.964844 674.488281 195.464844 674.429688 194.410156 674.429688 Z M 194.410156 674.429688 " fill-opacity="1" fill-rule="nonzero"/><path fill="#f5f0e6" d="M 214.75 675.507812 C 213.042969 675.375 210.800781 675.671875 210.855469 672.984375 C 210.855469 670.78125 212.710938 670.578125 214.5625 670.558594 C 216.417969 670.539062 218.53125 670.761719 218.570312 673.191406 C 218.605469 675.617188 216.53125 675.433594 214.75 675.507812 Z M 214.75 675.507812 " fill-opacity="1" fill-rule="nonzero"/><path fill="#f4f4ee" d="M 555.816406 556.871094 C 555.601562 556.796875 555.402344 556.699219 555.214844 556.574219 C 555.027344 556.449219 554.855469 556.300781 554.707031 556.132812 C 554.554688 555.964844 554.429688 555.78125 554.328125 555.578125 C 554.222656 555.378906 554.148438 555.167969 554.097656 554.945312 C 554.050781 554.726562 554.03125 554.503906 554.039062 554.277344 C 554.050781 554.050781 554.085938 553.832031 554.152344 553.613281 C 554.21875 553.398438 554.3125 553.195312 554.429688 553 C 554.546875 552.808594 554.6875 552.636719 554.851562 552.480469 C 557.511719 549.910156 559.84375 547.078125 561.855469 543.976562 C 563.863281 540.875 565.496094 537.585938 566.757812 534.113281 C 566.84375 533.867188 566.972656 533.652344 567.152344 533.464844 C 567.328125 533.273438 567.535156 533.128906 567.773438 533.027344 C 568.011719 532.925781 568.257812 532.875 568.515625 532.878906 C 568.777344 532.878906 569.023438 532.933594 569.261719 533.039062 C 570.1875 533.296875 570.445312 534.019531 570.558594 534.890625 C 571.113281 539.5625 561.546875 554.90625 557.039062 556.484375 C 556.726562 556.648438 556.390625 556.707031 555.816406 556.871094 Z M 555.816406 556.871094 " fill-opacity="1" fill-rule="nonzero"/><path fill="#f1ede7" d="M 557.246094 626.375 C 558.875 626.800781 560.007812 627.484375 559.730469 629.097656 C 559.675781 629.511719 559.546875 629.902344 559.339844 630.265625 C 559.136719 630.628906 558.867188 630.941406 558.542969 631.199219 C 558.214844 631.460938 557.851562 631.648438 557.449219 631.765625 C 557.046875 631.882812 556.640625 631.921875 556.226562 631.878906 C 555.933594 631.855469 555.65625 631.777344 555.398438 631.640625 C 555.136719 631.507812 554.914062 631.324219 554.726562 631.101562 C 554.542969 630.875 554.40625 630.625 554.320312 630.34375 C 554.238281 630.0625 554.210938 629.777344 554.242188 629.488281 C 554.277344 627.449219 555.871094 626.875 557.246094 626.375 Z M 557.246094 626.375 " fill-opacity="1" fill-rule="nonzero"/><path fill="#fdfdfc" d="M 248.738281 383.191406 C 246.050781 383.0625 243.433594 383.191406 242.265625 380.617188 C 241.097656 378.039062 242.675781 375.816406 244.472656 373.925781 C 248.089844 370.308594 252.230469 367.457031 256.894531 365.363281 C 287.101562 350.90625 309.203125 328.054688 326.132812 299.640625 C 331.355469 290.777344 337.292969 282.425781 343.953125 274.585938 C 345.617188 272.695312 347.417969 270.9375 349.347656 269.320312 C 349.585938 269.066406 349.859375 268.867188 350.175781 268.722656 C 350.492188 268.578125 350.820312 268.496094 351.167969 268.480469 C 351.515625 268.464844 351.851562 268.515625 352.179688 268.632812 C 352.503906 268.75 352.796875 268.921875 353.058594 269.152344 C 353.324219 269.371094 353.542969 269.628906 353.722656 269.921875 C 353.902344 270.214844 354.03125 270.53125 354.105469 270.867188 C 354.179688 271.203125 354.195312 271.542969 354.15625 271.882812 C 354.117188 272.222656 354.023438 272.550781 353.871094 272.859375 C 353.660156 273.511719 353.375 274.128906 353.019531 274.714844 C 342.878906 289.078125 336.574219 305.515625 328.023438 320.734375 C 324.589844 327.015625 320.671875 332.984375 316.277344 338.640625 C 311.882812 344.292969 307.066406 349.5625 301.824219 354.441406 C 296.582031 359.324219 290.984375 363.757812 285.03125 367.738281 C 279.078125 371.722656 272.847656 375.203125 266.335938 378.1875 C 262.296875 379.875 258.160156 381.277344 253.929688 382.394531 C 252.21875 382.800781 250.488281 383.066406 248.738281 383.191406 Z M 248.738281 383.191406 " fill-opacity="1" fill-rule="nonzero"/><path fill="#fafbf9" d="M 215.082031 396.148438 C 212.449219 396.015625 209.519531 395.367188 209.519531 391.199219 C 209.519531 387.324219 213.933594 384.082031 219.125 384.117188 C 222.425781 384.117188 225.320312 385.0625 225.394531 389.085938 C 225.484375 392.8125 220.867188 396.054688 215.082031 396.148438 Z M 215.082031 396.148438 " fill-opacity="1" fill-rule="nonzero"/><path fill="#f9f7f4" d="M 106.554688 303.644531 C 107.277344 300.625 108.222656 297.621094 112.117188 297.660156 C 115.289062 297.660156 116.4375 300.125 116.253906 302.867188 C 116.03125 306.238281 114.15625 308.703125 110.5625 308.648438 C 107.648438 308.613281 106.796875 306.238281 106.554688 303.644531 Z M 106.554688 303.644531 " fill-opacity="1" fill-rule="nonzero"/><path fill="#f3eedc" d="M 152.558594 170.554688 C 151.632812 142.457031 159.976562 118.769531 178.519531 98.867188 C 189.644531 87.058594 202.402344 78.183594 218.996094 76.21875 C 243.417969 73.34375 263.980469 95.84375 259.472656 120.105469 C 259.230469 121.257812 258.867188 122.371094 258.378906 123.441406 C 257.890625 124.515625 257.292969 125.523438 256.585938 126.464844 C 255.878906 127.40625 255.078125 128.257812 254.179688 129.023438 C 253.285156 129.789062 252.316406 130.449219 251.277344 131.003906 C 240.394531 137.695312 228.101562 140.675781 216.046875 144.328125 C 205.109375 147.628906 194.113281 150.703125 183.433594 154.78125 C 172.539062 158.863281 162.25 164.121094 152.558594 170.554688 Z M 152.558594 170.554688 " fill-opacity="1" fill-rule="nonzero"/></svg>